<svg width="182" height="49" viewBox="0 0 182 49" fill="none" xmlns="http://www.w3.org/2000/svg">
<g clip-path="url(#clip0)">
<path d="M33.9891 39.2027C33.6478 36.151 33.9219 31.3182 33.782 28.9047C33.8492 28.9047 33.9163 28.7654 33.9891 28.7654C33.9891 28.6958 33.9219 28.6958 33.9219 28.7654C34.1289 27.7734 35.4997 28.5508 36.5235 28.2665C36.5235 26.9901 38.1684 27.4833 38.4426 26.5608C38.1684 26.3461 37.9614 26.4216 38.0342 25.9226C37.1446 25.9226 37.0047 24.9305 36.1151 24.9305C36.048 24.8609 36.1823 24.1473 36.1823 24.1473C36.1823 24.1473 34.0618 24.1473 33.5135 24.0777C33.5135 20.1731 31.8686 19.2043 31.3203 15.8625C31.186 15.7929 31.186 15.5782 30.979 15.6478C30.979 15.4332 27.4878 12.5207 26.6653 11.6737C26.4583 11.6737 26.3241 11.6737 26.117 11.6737C26.3241 10.8904 25.8429 10.4669 26.0499 9.75911C25.5016 9.12093 24.3379 9.12093 24.612 7.91418C24.405 7.6299 24.0637 7.49065 23.9294 7.13095C23.9294 6.77705 24.1365 6.77705 24.2036 6.49276C24.2036 6.13886 23.7224 6.13886 23.5882 5.85458C23.5882 5.5703 23.8623 5.71534 23.8623 5.50068C23.521 5.07715 23.521 4.57821 23.3811 3.94002C23.3811 3.8704 23.3811 3.80078 23.3811 3.80078C23.3811 3.80078 23.3811 3.80078 23.3811 3.8704C23.3811 3.8704 23.3811 3.8704 23.3811 3.80078C23.3811 3.80078 23.3811 3.8704 23.3811 3.94002C23.2469 4.57821 23.2469 5.07715 22.9 5.50068C22.9 5.71534 23.2413 5.63992 23.1741 5.85458C23.107 6.06924 22.5587 6.13886 22.5587 6.49276C22.6258 6.70743 22.9 6.77705 22.8328 7.13095C22.6986 7.48485 22.3517 7.55447 22.1503 7.91418C22.4244 9.12093 21.2607 9.12093 20.7124 9.75911C20.9194 10.4669 20.4382 10.8962 20.6452 11.6737C20.4382 11.6737 20.304 11.6737 20.0969 11.6737C19.3416 12.5265 15.7833 15.439 15.7833 15.6478C15.5763 15.6478 15.5091 15.7871 15.442 15.8625C14.8937 19.1985 13.1817 20.0977 13.2488 24.0777C12.7005 24.1473 10.58 24.1473 10.58 24.1473C10.58 24.1473 10.7143 24.8551 10.6472 24.9305C9.75759 24.9305 9.61772 25.9226 8.72813 25.9226C8.79527 26.3461 8.52112 26.2765 8.3197 26.5608C8.59385 27.4833 10.2387 26.9843 10.2387 28.2665C11.2682 28.5508 12.6334 27.7676 12.8404 28.7654C12.8404 28.7654 12.7732 28.6958 12.7732 28.7654C12.9075 28.7654 12.9075 28.9047 12.9802 28.9047C12.846 31.3182 13.0474 36.1452 12.7732 39.2027C10.1045 38.988 7.97841 39.4173 6.40625 40.2702V43.9601H23.3084H40.2218V40.2702C38.7167 39.3419 36.6634 38.9822 33.9891 39.2027ZM27.5549 39.3419H19.4759V26.2765C19.4759 26.2765 20.8467 24.0777 23.4483 24.0777C25.9828 24.0777 27.5549 26.2765 27.5549 26.2765V39.3419Z" fill="white" stroke="white" stroke-width="0.5" stroke-miterlimit="10"/>
<path d="M23.375 3.86456V3.02331V0.702637L26.3683 2.14145L23.375 3.02331" fill="white"/>
<path d="M23.375 3.86456V3.02331V0.702637L26.3683 2.14145L23.375 3.02331" stroke="white" stroke-width="0.5" stroke-miterlimit="10"/>
</g>
<path d="M57.48 9.77C57.48 10.25 57.6 10.6767 57.84 11.05C58.0933 11.4233 58.4 11.75 58.76 12.03C59.12 12.31 59.6067 12.65 60.22 13.05C60.8867 13.4767 61.42 13.85 61.82 14.17C62.22 14.49 62.56 14.8833 62.84 15.35C63.12 15.8033 63.26 16.33 63.26 16.93C63.26 17.6233 63.0733 18.2433 62.7 18.79C62.3267 19.3233 61.8067 19.7433 61.14 20.05C60.4867 20.3433 59.7533 20.49 58.94 20.49C58.34 20.49 57.7133 20.41 57.06 20.25C56.4067 20.0767 55.9667 19.89 55.74 19.69C55.6733 19.6367 55.62 19.59 55.58 19.55C55.5533 19.4967 55.54 19.4167 55.54 19.31L55.48 16.13V16.11C55.48 16.0567 55.5133 16.03 55.58 16.03C55.6467 16.0167 55.6867 16.0367 55.7 16.09C56.1 16.9033 56.4467 17.5633 56.74 18.07C57.0467 18.5767 57.4267 19.0233 57.88 19.41C58.3467 19.7967 58.8733 19.99 59.46 19.99C59.9933 19.99 60.4333 19.85 60.78 19.57C61.1267 19.2767 61.3 18.7833 61.3 18.09C61.3 17.5033 61.1667 16.99 60.9 16.55C60.6467 16.11 60.3333 15.7367 59.96 15.43C59.5867 15.1233 59.0733 14.7567 58.42 14.33C57.78 13.9167 57.28 13.5633 56.92 13.27C56.5733 12.9767 56.2733 12.6233 56.02 12.21C55.7667 11.7967 55.64 11.31 55.64 10.75C55.64 10.0433 55.84 9.45 56.24 8.97C56.6533 8.47667 57.18 8.11667 57.82 7.89C58.46 7.65 59.1333 7.53 59.84 7.53C60.3067 7.53 60.78 7.57667 61.26 7.67C61.74 7.75 62.1267 7.85 62.42 7.97C62.54 8.02333 62.62 8.08333 62.66 8.15C62.7 8.20333 62.72 8.27667 62.72 8.37V11.31C62.72 11.35 62.6867 11.3833 62.62 11.41C62.5533 11.4233 62.5133 11.41 62.5 11.37L62.34 10.99C62.0067 10.15 61.6133 9.43667 61.16 8.85C60.72 8.26333 60.1 7.97 59.3 7.97C58.7667 7.97 58.3267 8.12333 57.98 8.43C57.6467 8.73667 57.48 9.18333 57.48 9.77ZM72.673 19.17C72.7263 19.17 72.7596 19.2033 72.773 19.27C72.7996 19.3233 72.7863 19.3633 72.733 19.39L70.673 20.37C70.6196 20.3967 70.553 20.41 70.473 20.41C70.273 20.41 70.073 20.31 69.873 20.11C69.6863 19.91 69.553 19.6367 69.473 19.29L68.553 19.79C68.2063 19.9633 67.8463 20.11 67.473 20.23C67.0996 20.3367 66.7663 20.39 66.473 20.39C66.0463 20.39 65.7063 20.2833 65.453 20.07C65.213 19.8433 65.093 19.5233 65.093 19.11C65.093 18.8033 65.1663 18.5567 65.313 18.37C65.473 18.1833 65.693 18.03 65.973 17.91C66.2663 17.7767 66.7263 17.6033 67.353 17.39L69.393 16.73V15.15C69.393 14.35 69.313 13.7633 69.153 13.39C68.993 13.0033 68.733 12.81 68.373 12.81C68.053 12.81 67.7996 12.93 67.613 13.17C67.4263 13.41 67.313 13.8033 67.273 14.35C67.193 15.0967 66.7996 15.47 66.093 15.47C65.4663 15.47 65.153 15.1967 65.153 14.65C65.153 14.29 65.3796 13.93 65.833 13.57C66.2863 13.21 66.833 12.9167 67.473 12.69C68.113 12.4633 68.673 12.35 69.153 12.35C69.7796 12.35 70.2863 12.5367 70.673 12.91C71.073 13.2833 71.273 13.83 71.273 14.55V18.09C71.273 18.4767 71.3396 18.7767 71.473 18.99C71.6196 19.2033 71.8196 19.31 72.073 19.31C72.2596 19.31 72.453 19.2633 72.653 19.17H72.673ZM69.413 18.97C69.3996 18.8767 69.393 18.7367 69.393 18.55V17.07L68.293 17.47C67.933 17.6033 67.673 17.75 67.513 17.91C67.3663 18.07 67.293 18.2633 67.293 18.49C67.293 18.77 67.373 18.99 67.533 19.15C67.693 19.31 67.893 19.39 68.133 19.39C68.4263 19.39 68.7663 19.2967 69.153 19.11L69.413 18.97ZM82.8909 20.01C82.9309 20.01 82.9509 20.05 82.9509 20.13C82.9509 20.21 82.9309 20.25 82.8909 20.25C82.5443 20.25 82.2709 20.2433 82.0709 20.23L80.8709 20.21L79.7109 20.23C79.4976 20.2433 79.2176 20.25 78.8709 20.25C78.8309 20.25 78.8109 20.21 78.8109 20.13C78.8109 20.05 78.8309 20.01 78.8709 20.01C79.2843 20.01 79.5643 19.9167 79.7109 19.73C79.8576 19.53 79.9309 19.1633 79.9309 18.63V15.75C79.9309 15.03 79.7976 14.4967 79.5309 14.15C79.2776 13.8033 78.8709 13.63 78.3109 13.63C77.9909 13.63 77.6576 13.6967 77.3109 13.83C76.9776 13.9633 76.6843 14.1433 76.4309 14.37V18.63C76.4309 19.1633 76.5043 19.53 76.6509 19.73C76.8109 19.9167 77.0976 20.01 77.5109 20.01C77.5509 20.01 77.5709 20.05 77.5709 20.13C77.5709 20.21 77.5509 20.25 77.5109 20.25C77.1643 20.25 76.8909 20.2433 76.6909 20.23L75.4909 20.21L74.3109 20.23C74.1109 20.2433 73.8376 20.25 73.4909 20.25C73.4509 20.25 73.4309 20.21 73.4309 20.13C73.4309 20.05 73.4509 20.01 73.4909 20.01C73.9043 20.01 74.1843 19.9167 74.3309 19.73C74.4776 19.53 74.5509 19.1633 74.5509 18.63V14.87C74.5509 14.4567 74.4976 14.1567 74.3909 13.97C74.2976 13.77 74.1443 13.67 73.9309 13.67C73.7043 13.67 73.3843 13.7633 72.9709 13.95H72.9309C72.8909 13.95 72.8576 13.9167 72.8309 13.85C72.8176 13.7833 72.8243 13.7433 72.8509 13.73L75.6309 12.37C75.7109 12.3433 75.7576 12.33 75.7709 12.33C75.9176 12.33 76.0576 12.4767 76.1909 12.77C76.3243 13.05 76.4043 13.4367 76.4309 13.93C77.3509 12.8367 78.3643 12.29 79.4709 12.29C80.1909 12.29 80.7576 12.5233 81.1709 12.99C81.5976 13.4433 81.8109 14.0433 81.8109 14.79V18.63C81.8109 19.1633 81.8843 19.53 82.0309 19.73C82.1909 19.9167 82.4776 20.01 82.8909 20.01ZM93.1783 20.01C93.2183 20.01 93.2383 20.05 93.2383 20.13C93.2383 20.21 93.2183 20.25 93.1783 20.25C92.8316 20.25 92.5583 20.2433 92.3583 20.23L91.1583 20.21L89.6183 20.23C89.3916 20.2433 89.0849 20.25 88.6983 20.25C88.6583 20.25 88.6383 20.21 88.6383 20.13C88.6383 20.05 88.6583 20.01 88.6983 20.01C89.1783 20.01 89.4183 19.87 89.4183 19.59C89.4183 19.4433 89.3649 19.31 89.2583 19.19L86.9783 16.27L86.5983 16.61V18.63C86.5983 19.1633 86.6716 19.53 86.8183 19.73C86.9783 19.9167 87.2649 20.01 87.6783 20.01C87.7316 20.01 87.7583 20.05 87.7583 20.13C87.7583 20.21 87.7316 20.25 87.6783 20.25C87.3316 20.25 87.0516 20.2433 86.8383 20.23L85.6783 20.21L84.4783 20.23C84.2783 20.2433 84.0049 20.25 83.6583 20.25C83.6316 20.25 83.6183 20.21 83.6183 20.13C83.6183 20.05 83.6316 20.01 83.6583 20.01C84.0716 20.01 84.3516 19.9167 84.4983 19.73C84.6583 19.53 84.7383 19.1633 84.7383 18.63V8.47C84.7383 8.00333 84.6916 7.67 84.5983 7.47C84.5183 7.27 84.3716 7.17 84.1583 7.17C83.9716 7.17 83.7183 7.24333 83.3983 7.39H83.3783C83.3383 7.39 83.2983 7.35667 83.2583 7.29C83.2316 7.21 83.2316 7.16333 83.2583 7.15L86.1783 5.77L86.2783 5.75C86.3449 5.75 86.4116 5.78333 86.4783 5.85C86.5583 5.90333 86.5983 5.95667 86.5983 6.01V16.15L88.4583 14.35C88.8049 14.03 88.9783 13.7033 88.9783 13.37C88.9783 13.1967 88.9116 13.0567 88.7783 12.95C88.6449 12.83 88.4583 12.77 88.2183 12.77C88.1916 12.77 88.1783 12.73 88.1783 12.65C88.1783 12.57 88.1916 12.53 88.2183 12.53C88.6049 12.53 88.9049 12.5367 89.1183 12.55L90.6983 12.57L92.1583 12.55C92.3449 12.5367 92.6049 12.53 92.9383 12.53C92.9783 12.53 92.9983 12.57 92.9983 12.65C92.9983 12.73 92.9783 12.77 92.9383 12.77C92.3649 12.77 91.7049 12.9167 90.9583 13.21C90.2249 13.49 89.5649 13.9033 88.9783 14.45L88.2583 15.11L90.9983 18.63C91.3849 19.11 91.7516 19.4633 92.0983 19.69C92.4583 19.9033 92.8183 20.01 93.1783 20.01ZM101.443 19.17C101.496 19.17 101.529 19.2033 101.543 19.27C101.569 19.3233 101.556 19.3633 101.503 19.39L99.4425 20.37C99.3892 20.3967 99.3225 20.41 99.2425 20.41C99.0425 20.41 98.8425 20.31 98.6425 20.11C98.4558 19.91 98.3225 19.6367 98.2425 19.29L97.3225 19.79C96.9758 19.9633 96.6158 20.11 96.2425 20.23C95.8692 20.3367 95.5358 20.39 95.2425 20.39C94.8158 20.39 94.4758 20.2833 94.2225 20.07C93.9825 19.8433 93.8625 19.5233 93.8625 19.11C93.8625 18.8033 93.9358 18.5567 94.0825 18.37C94.2425 18.1833 94.4625 18.03 94.7425 17.91C95.0358 17.7767 95.4958 17.6033 96.1225 17.39L98.1625 16.73V15.15C98.1625 14.35 98.0825 13.7633 97.9225 13.39C97.7625 13.0033 97.5025 12.81 97.1425 12.81C96.8225 12.81 96.5692 12.93 96.3825 13.17C96.1958 13.41 96.0825 13.8033 96.0425 14.35C95.9625 15.0967 95.5692 15.47 94.8625 15.47C94.2358 15.47 93.9225 15.1967 93.9225 14.65C93.9225 14.29 94.1492 13.93 94.6025 13.57C95.0558 13.21 95.6025 12.9167 96.2425 12.69C96.8825 12.4633 97.4425 12.35 97.9225 12.35C98.5492 12.35 99.0558 12.5367 99.4425 12.91C99.8425 13.2833 100.043 13.83 100.043 14.55V18.09C100.043 18.4767 100.109 18.7767 100.243 18.99C100.389 19.2033 100.589 19.31 100.843 19.31C101.029 19.31 101.223 19.2633 101.423 19.17H101.443ZM98.1825 18.97C98.1692 18.8767 98.1625 18.7367 98.1625 18.55V17.07L97.0625 17.47C96.7025 17.6033 96.4425 17.75 96.2825 17.91C96.1358 18.07 96.0625 18.2633 96.0625 18.49C96.0625 18.77 96.1425 18.99 96.3025 19.15C96.4625 19.31 96.6625 19.39 96.9025 19.39C97.1958 19.39 97.5358 19.2967 97.9225 19.11L98.1825 18.97ZM107.96 18.85C108.014 18.85 108.054 18.8767 108.08 18.93C108.12 18.9833 108.12 19.0233 108.08 19.05C107.587 19.5433 107.107 19.91 106.64 20.15C106.174 20.3767 105.68 20.49 105.16 20.49C104.574 20.49 104.074 20.35 103.66 20.07C103.247 19.79 103.04 19.3167 103.04 18.65V14.21C103.04 13.7967 102.967 13.51 102.82 13.35C102.674 13.19 102.407 13.11 102.02 13.11C102.007 13.11 101.987 13.09 101.96 13.05C101.947 13.01 101.94 12.97 101.94 12.93C101.94 12.8767 101.947 12.8367 101.96 12.81C101.974 12.77 101.994 12.75 102.02 12.75C102.7 12.7233 103.247 12.5767 103.66 12.31C104.087 12.0433 104.414 11.6367 104.64 11.09C104.667 11.0367 104.72 11.01 104.8 11.01C104.894 11.01 104.94 11.0367 104.94 11.09V12.69C105.714 12.6767 106.58 12.6167 107.54 12.51C107.567 12.51 107.594 12.5633 107.62 12.67C107.66 12.7633 107.68 12.87 107.68 12.99C107.68 13.1233 107.654 13.2567 107.6 13.39C107.56 13.51 107.514 13.5633 107.46 13.55C106.594 13.3633 105.754 13.2633 104.94 13.25V17.99C104.94 18.4967 105.067 18.87 105.32 19.11C105.587 19.35 105.934 19.47 106.36 19.47C106.894 19.47 107.414 19.27 107.92 18.87L107.96 18.85ZM105.24 24.39C104.854 24.39 104.554 24.2833 104.34 24.07C104.127 23.8567 104.02 23.5567 104.02 23.17C104.02 22.8233 104.127 22.5433 104.34 22.33C104.567 22.13 104.867 22.03 105.24 22.03C105.6 22.03 105.88 22.13 106.08 22.33C106.294 22.5433 106.4 22.8233 106.4 23.17C106.4 23.5567 106.3 23.8567 106.1 24.07C105.9 24.2833 105.614 24.39 105.24 24.39ZM129.547 20.01C129.573 20.01 129.587 20.05 129.587 20.13C129.587 20.21 129.573 20.25 129.547 20.25C129.093 20.25 128.733 20.2433 128.467 20.23L126.987 20.21L125.487 20.23C125.233 20.2433 124.887 20.25 124.447 20.25C124.407 20.25 124.387 20.21 124.387 20.13C124.387 20.05 124.407 20.01 124.447 20.01C125.007 20.01 125.387 19.9433 125.587 19.81C125.787 19.6767 125.887 19.3967 125.887 18.97L125.867 18.63L125.447 10.45L121.327 20.11C121.3 20.1633 121.247 20.19 121.167 20.19C121.087 20.19 121.033 20.1633 121.007 20.11L115.947 10.49L115.787 17.71C115.773 18.43 115.913 18.9967 116.207 19.41C116.513 19.81 116.94 20.01 117.487 20.01C117.527 20.01 117.547 20.05 117.547 20.13C117.547 20.21 117.527 20.25 117.487 20.25C117.127 20.25 116.847 20.2433 116.647 20.23L115.547 20.21L114.287 20.23C114.073 20.2433 113.787 20.25 113.427 20.25C113.387 20.25 113.367 20.21 113.367 20.13C113.367 20.05 113.387 20.01 113.427 20.01C113.973 20.01 114.407 19.8033 114.727 19.39C115.047 18.9767 115.213 18.4167 115.227 17.71L115.407 9.43L115.387 9.41C115.12 8.91667 114.84 8.55667 114.547 8.33C114.267 8.10333 113.94 7.99 113.567 7.99C113.527 7.99 113.507 7.95 113.507 7.87C113.507 7.79 113.527 7.75 113.567 7.75L114.507 7.77C114.693 7.78333 114.933 7.79 115.227 7.79L116.287 7.77C116.407 7.75667 116.56 7.75 116.747 7.75C116.92 7.75 117.053 7.81 117.147 7.93C117.24 8.05 117.413 8.33667 117.667 8.79L122.027 16.97L125.827 8.25C125.907 8.06333 125.987 7.93667 126.067 7.87C126.16 7.79 126.28 7.75 126.427 7.75C126.547 7.75 126.68 7.75667 126.827 7.77C126.987 7.78333 127.167 7.79 127.367 7.79L128.547 7.77C128.733 7.75667 129 7.75 129.347 7.75C129.387 7.75 129.407 7.79 129.407 7.87C129.407 7.95 129.387 7.99 129.347 7.99C128.72 7.99 128.267 8.11667 127.987 8.37C127.707 8.62333 127.58 9.01667 127.607 9.55L128.087 18.63C128.113 19.0433 128.16 19.3433 128.227 19.53C128.307 19.7167 128.44 19.8433 128.627 19.91C128.827 19.9767 129.133 20.01 129.547 20.01ZM134.775 20.51C133.948 20.51 133.222 20.3233 132.595 19.95C131.982 19.5633 131.508 19.05 131.175 18.41C130.842 17.7567 130.675 17.05 130.675 16.29C130.675 15.4233 130.895 14.69 131.335 14.09C131.775 13.4767 132.335 13.0233 133.015 12.73C133.695 12.4233 134.395 12.27 135.115 12.27C135.942 12.27 136.662 12.4633 137.275 12.85C137.888 13.2367 138.355 13.75 138.675 14.39C139.008 15.0167 139.175 15.69 139.175 16.41C139.175 17.21 138.975 17.9233 138.575 18.55C138.175 19.1633 137.635 19.6433 136.955 19.99C136.288 20.3367 135.562 20.51 134.775 20.51ZM135.375 20.09C135.895 20.09 136.288 19.8367 136.555 19.33C136.835 18.81 136.975 18.07 136.975 17.11C136.975 16.1767 136.855 15.3767 136.615 14.71C136.375 14.0433 136.062 13.5433 135.675 13.21C135.288 12.8633 134.875 12.69 134.435 12.69C133.368 12.69 132.835 13.6433 132.835 15.55C132.835 16.4433 132.948 17.2367 133.175 17.93C133.402 18.61 133.708 19.1433 134.095 19.53C134.482 19.9033 134.908 20.09 135.375 20.09ZM144.5 20.49C143.62 20.49 142.874 20.3033 142.26 19.93C141.66 19.5433 141.207 19.05 140.9 18.45C140.607 17.8367 140.46 17.1967 140.46 16.53C140.46 15.69 140.694 14.9567 141.16 14.33C141.627 13.69 142.22 13.2033 142.94 12.87C143.674 12.5233 144.42 12.35 145.18 12.35C145.82 12.35 146.394 12.4833 146.9 12.75C147.42 13.0167 147.68 13.3833 147.68 13.85C147.68 14.1033 147.58 14.3233 147.38 14.51C147.194 14.6833 146.927 14.77 146.58 14.77C146.26 14.77 146.007 14.69 145.82 14.53C145.634 14.3567 145.48 14.0967 145.36 13.75C145.24 13.3767 145.12 13.1233 145 12.99C144.894 12.8433 144.694 12.77 144.4 12.77C143.827 12.77 143.367 13.0567 143.02 13.63C142.687 14.19 142.52 14.9367 142.52 15.87C142.52 16.9767 142.767 17.8633 143.26 18.53C143.754 19.1833 144.54 19.51 145.62 19.51C145.98 19.51 146.287 19.47 146.54 19.39C146.807 19.31 147.14 19.1767 147.54 18.99H147.56C147.6 18.99 147.634 19.01 147.66 19.05C147.7 19.09 147.707 19.1233 147.68 19.15C147.187 19.6033 146.694 19.9433 146.2 20.17C145.707 20.3833 145.14 20.49 144.5 20.49ZM158.136 20.01C158.19 20.01 158.216 20.05 158.216 20.13C158.216 20.21 158.19 20.25 158.136 20.25C157.79 20.25 157.51 20.2433 157.296 20.23L156.136 20.21L154.936 20.23C154.736 20.2433 154.463 20.25 154.116 20.25C154.09 20.25 154.076 20.21 154.076 20.13C154.076 20.05 154.09 20.01 154.116 20.01C154.53 20.01 154.81 19.9167 154.956 19.73C155.116 19.53 155.196 19.1633 155.196 18.63V15.75C155.196 15.03 155.063 14.4967 154.796 14.15C154.53 13.8033 154.116 13.63 153.556 13.63C153.236 13.63 152.903 13.6967 152.556 13.83C152.223 13.9633 151.93 14.1433 151.676 14.37V18.63C151.676 19.1633 151.75 19.53 151.896 19.73C152.056 19.9167 152.343 20.01 152.756 20.01C152.81 20.01 152.836 20.05 152.836 20.13C152.836 20.21 152.81 20.25 152.756 20.25C152.41 20.25 152.13 20.2433 151.916 20.23L150.756 20.21L149.556 20.23C149.356 20.2433 149.083 20.25 148.736 20.25C148.71 20.25 148.696 20.21 148.696 20.13C148.696 20.05 148.71 20.01 148.736 20.01C149.15 20.01 149.43 19.9167 149.576 19.73C149.736 19.53 149.816 19.1633 149.816 18.63V8.47C149.816 8.00333 149.77 7.67 149.676 7.47C149.596 7.27 149.45 7.17 149.236 7.17C149.05 7.17 148.796 7.24333 148.476 7.39H148.456C148.416 7.39 148.376 7.35667 148.336 7.29C148.31 7.21 148.31 7.16333 148.336 7.15L151.256 5.77L151.356 5.75C151.423 5.75 151.49 5.78333 151.556 5.85C151.636 5.90333 151.676 5.95667 151.676 6.01V13.93C152.623 12.8367 153.636 12.29 154.716 12.29C155.436 12.29 156.003 12.5233 156.416 12.99C156.843 13.4433 157.056 14.0433 157.056 14.79V18.63C157.056 19.1633 157.13 19.53 157.276 19.73C157.436 19.9167 157.723 20.01 158.136 20.01ZM166.872 19.17C166.926 19.17 166.959 19.2033 166.972 19.27C166.999 19.3233 166.986 19.3633 166.932 19.39L164.872 20.37C164.819 20.3967 164.752 20.41 164.672 20.41C164.472 20.41 164.272 20.31 164.072 20.11C163.886 19.91 163.752 19.6367 163.672 19.29L162.752 19.79C162.406 19.9633 162.046 20.11 161.672 20.23C161.299 20.3367 160.966 20.39 160.672 20.39C160.246 20.39 159.906 20.2833 159.652 20.07C159.412 19.8433 159.292 19.5233 159.292 19.11C159.292 18.8033 159.366 18.5567 159.512 18.37C159.672 18.1833 159.892 18.03 160.172 17.91C160.466 17.7767 160.926 17.6033 161.552 17.39L163.592 16.73V15.15C163.592 14.35 163.512 13.7633 163.352 13.39C163.192 13.0033 162.932 12.81 162.572 12.81C162.252 12.81 161.999 12.93 161.812 13.17C161.626 13.41 161.512 13.8033 161.472 14.35C161.392 15.0967 160.999 15.47 160.292 15.47C159.666 15.47 159.352 15.1967 159.352 14.65C159.352 14.29 159.579 13.93 160.032 13.57C160.486 13.21 161.032 12.9167 161.672 12.69C162.312 12.4633 162.872 12.35 163.352 12.35C163.979 12.35 164.486 12.5367 164.872 12.91C165.272 13.2833 165.472 13.83 165.472 14.55V18.09C165.472 18.4767 165.539 18.7767 165.672 18.99C165.819 19.2033 166.019 19.31 166.272 19.31C166.459 19.31 166.652 19.2633 166.852 19.17H166.872ZM163.612 18.97C163.599 18.8767 163.592 18.7367 163.592 18.55V17.07L162.492 17.47C162.132 17.6033 161.872 17.75 161.712 17.91C161.566 18.07 161.492 18.2633 161.492 18.49C161.492 18.77 161.572 18.99 161.732 19.15C161.892 19.31 162.092 19.39 162.332 19.39C162.626 19.39 162.966 19.2967 163.352 19.11L163.612 18.97ZM177.09 20.01C177.13 20.01 177.15 20.05 177.15 20.13C177.15 20.21 177.13 20.25 177.09 20.25C176.743 20.25 176.47 20.2433 176.27 20.23L175.07 20.21L173.91 20.23C173.697 20.2433 173.417 20.25 173.07 20.25C173.03 20.25 173.01 20.21 173.01 20.13C173.01 20.05 173.03 20.01 173.07 20.01C173.483 20.01 173.763 19.9167 173.91 19.73C174.057 19.53 174.13 19.1633 174.13 18.63V15.75C174.13 15.03 173.997 14.4967 173.73 14.15C173.477 13.8033 173.07 13.63 172.51 13.63C172.19 13.63 171.857 13.6967 171.51 13.83C171.177 13.9633 170.883 14.1433 170.63 14.37V18.63C170.63 19.1633 170.703 19.53 170.85 19.73C171.01 19.9167 171.297 20.01 171.71 20.01C171.75 20.01 171.77 20.05 171.77 20.13C171.77 20.21 171.75 20.25 171.71 20.25C171.363 20.25 171.09 20.2433 170.89 20.23L169.69 20.21L168.51 20.23C168.31 20.2433 168.037 20.25 167.69 20.25C167.65 20.25 167.63 20.21 167.63 20.13C167.63 20.05 167.65 20.01 167.69 20.01C168.103 20.01 168.383 19.9167 168.53 19.73C168.677 19.53 168.75 19.1633 168.75 18.63V14.87C168.75 14.4567 168.697 14.1567 168.59 13.97C168.497 13.77 168.343 13.67 168.13 13.67C167.903 13.67 167.583 13.7633 167.17 13.95H167.13C167.09 13.95 167.057 13.9167 167.03 13.85C167.017 13.7833 167.023 13.7433 167.05 13.73L169.83 12.37C169.91 12.3433 169.957 12.33 169.97 12.33C170.117 12.33 170.257 12.4767 170.39 12.77C170.523 13.05 170.603 13.4367 170.63 13.93C171.55 12.8367 172.563 12.29 173.67 12.29C174.39 12.29 174.957 12.5233 175.37 12.99C175.797 13.4433 176.01 14.0433 176.01 14.79V18.63C176.01 19.1633 176.083 19.53 176.23 19.73C176.39 19.9167 176.677 20.01 177.09 20.01ZM68.64 40.01C68.68 40.01 68.7 40.05 68.7 40.13C68.7 40.21 68.68 40.25 68.64 40.25C68.1733 40.25 67.8 40.2433 67.52 40.23L65.98 40.21L64.18 40.23C63.94 40.2433 63.6133 40.25 63.2 40.25C63.16 40.25 63.14 40.21 63.14 40.13C63.14 40.05 63.16 40.01 63.2 40.01C63.6933 40.01 64.0533 39.9767 64.28 39.91C64.5067 39.8433 64.66 39.7167 64.74 39.53C64.82 39.3433 64.86 39.0433 64.86 38.63V34.03H58.4V38.63C58.4 39.03 58.44 39.33 58.52 39.53C58.6 39.7167 58.7533 39.8433 58.98 39.91C59.2067 39.9767 59.5667 40.01 60.06 40.01C60.0867 40.01 60.1 40.05 60.1 40.13C60.1 40.21 60.0867 40.25 60.06 40.25C59.5933 40.25 59.22 40.2433 58.94 40.23L57.2 40.21L55.7 40.23C55.4333 40.2433 55.0667 40.25 54.6 40.25C54.5733 40.25 54.56 40.21 54.56 40.13C54.56 40.05 54.5733 40.01 54.6 40.01C55.0667 40.01 55.4067 39.9767 55.62 39.91C55.8333 39.8433 55.98 39.7167 56.06 39.53C56.14 39.33 56.18 39.03 56.18 38.63V29.37C56.18 28.97 56.14 28.6767 56.06 28.49C55.98 28.3033 55.8333 28.1767 55.62 28.11C55.42 28.03 55.0933 27.99 54.64 27.99C54.6 27.99 54.58 27.95 54.58 27.87C54.58 27.79 54.6 27.75 54.64 27.75L55.72 27.77C56.3333 27.7967 56.8267 27.81 57.2 27.81C57.7067 27.81 58.2933 27.7967 58.96 27.77L60.06 27.75C60.0867 27.75 60.1 27.79 60.1 27.87C60.1 27.95 60.0867 27.99 60.06 27.99C59.58 27.99 59.2267 28.03 59 28.11C58.7733 28.19 58.6133 28.33 58.52 28.53C58.44 28.7167 58.4 29.01 58.4 29.41V33.47H64.86V29.41C64.86 29.01 64.82 28.7167 64.74 28.53C64.66 28.33 64.5067 28.19 64.28 28.11C64.0533 28.03 63.6933 27.99 63.2 27.99C63.16 27.99 63.14 27.95 63.14 27.87C63.14 27.79 63.16 27.75 63.2 27.75L64.18 27.77C64.8467 27.7967 65.4467 27.81 65.98 27.81C66.34 27.81 66.8533 27.7967 67.52 27.77L68.64 27.75C68.68 27.75 68.7 27.79 68.7 27.87C68.7 27.95 68.68 27.99 68.64 27.99C68.1867 27.99 67.8467 28.03 67.62 28.11C67.4067 28.1767 67.26 28.3033 67.18 28.49C67.1133 28.6767 67.08 28.97 67.08 29.37V38.63C67.08 39.03 67.1133 39.33 67.18 39.53C67.26 39.7167 67.4067 39.8433 67.62 39.91C67.8333 39.9767 68.1733 40.01 68.64 40.01ZM77.6534 39.17C77.7068 39.17 77.7401 39.2033 77.7534 39.27C77.7801 39.3233 77.7668 39.3633 77.7134 39.39L75.6534 40.37C75.6001 40.3967 75.5334 40.41 75.4534 40.41C75.2534 40.41 75.0534 40.31 74.8534 40.11C74.6668 39.91 74.5334 39.6367 74.4534 39.29L73.5334 39.79C73.1868 39.9633 72.8268 40.11 72.4534 40.23C72.0801 40.3367 71.7468 40.39 71.4534 40.39C71.0268 40.39 70.6868 40.2833 70.4334 40.07C70.1934 39.8433 70.0734 39.5233 70.0734 39.11C70.0734 38.8033 70.1468 38.5567 70.2934 38.37C70.4534 38.1833 70.6734 38.03 70.9534 37.91C71.2468 37.7767 71.7068 37.6033 72.3334 37.39L74.3734 36.73V35.15C74.3734 34.35 74.2934 33.7633 74.1334 33.39C73.9734 33.0033 73.7134 32.81 73.3534 32.81C73.0334 32.81 72.7801 32.93 72.5934 33.17C72.4068 33.41 72.2934 33.8033 72.2534 34.35C72.1734 35.0967 71.7801 35.47 71.0734 35.47C70.4468 35.47 70.1334 35.1967 70.1334 34.65C70.1334 34.29 70.3601 33.93 70.8134 33.57C71.2668 33.21 71.8134 32.9167 72.4534 32.69C73.0934 32.4633 73.6534 32.35 74.1334 32.35C74.7601 32.35 75.2668 32.5367 75.6534 32.91C76.0534 33.2833 76.2534 33.83 76.2534 34.55V38.09C76.2534 38.4767 76.3201 38.7767 76.4534 38.99C76.6001 39.2033 76.8001 39.31 77.0534 39.31C77.2401 39.31 77.4334 39.2633 77.6334 39.17H77.6534ZM74.3934 38.97C74.3801 38.8767 74.3734 38.7367 74.3734 38.55V37.07L73.2734 37.47C72.9134 37.6033 72.6534 37.75 72.4934 37.91C72.3468 38.07 72.2734 38.2633 72.2734 38.49C72.2734 38.77 72.3534 38.99 72.5134 39.15C72.6734 39.31 72.8734 39.39 73.1134 39.39C73.4068 39.39 73.7468 39.2967 74.1334 39.11L74.3934 38.97ZM87.8714 40.01C87.9114 40.01 87.9314 40.05 87.9314 40.13C87.9314 40.21 87.9114 40.25 87.8714 40.25C87.5247 40.25 87.2514 40.2433 87.0514 40.23L85.8514 40.21L84.6914 40.23C84.4781 40.2433 84.1981 40.25 83.8514 40.25C83.8114 40.25 83.7914 40.21 83.7914 40.13C83.7914 40.05 83.8114 40.01 83.8514 40.01C84.2647 40.01 84.5447 39.9167 84.6914 39.73C84.8381 39.53 84.9114 39.1633 84.9114 38.63V35.75C84.9114 35.03 84.7781 34.4967 84.5114 34.15C84.2581 33.8033 83.8514 33.63 83.2914 33.63C82.9714 33.63 82.6381 33.6967 82.2914 33.83C81.9581 33.9633 81.6647 34.1433 81.4114 34.37V38.63C81.4114 39.1633 81.4847 39.53 81.6314 39.73C81.7914 39.9167 82.0781 40.01 82.4914 40.01C82.5314 40.01 82.5514 40.05 82.5514 40.13C82.5514 40.21 82.5314 40.25 82.4914 40.25C82.1447 40.25 81.8714 40.2433 81.6714 40.23L80.4714 40.21L79.2914 40.23C79.0914 40.2433 78.8181 40.25 78.4714 40.25C78.4314 40.25 78.4114 40.21 78.4114 40.13C78.4114 40.05 78.4314 40.01 78.4714 40.01C78.8847 40.01 79.1647 39.9167 79.3114 39.73C79.4581 39.53 79.5314 39.1633 79.5314 38.63V34.87C79.5314 34.4567 79.4781 34.1567 79.3714 33.97C79.2781 33.77 79.1247 33.67 78.9114 33.67C78.6847 33.67 78.3647 33.7633 77.9514 33.95H77.9114C77.8714 33.95 77.8381 33.9167 77.8114 33.85C77.7981 33.7833 77.8047 33.7433 77.8314 33.73L80.6114 32.37C80.6914 32.3433 80.7381 32.33 80.7514 32.33C80.8981 32.33 81.0381 32.4767 81.1714 32.77C81.3047 33.05 81.3847 33.4367 81.4114 33.93C82.3314 32.8367 83.3447 32.29 84.4514 32.29C85.1714 32.29 85.7381 32.5233 86.1514 32.99C86.5781 33.4433 86.7914 34.0433 86.7914 34.79V38.63C86.7914 39.1633 86.8647 39.53 87.0114 39.73C87.1714 39.9167 87.4581 40.01 87.8714 40.01ZM98.1988 38.95C98.2388 38.95 98.2721 38.9833 98.2988 39.05C98.3388 39.1167 98.3388 39.1567 98.2988 39.17L95.5388 40.51C95.5121 40.5233 95.4788 40.53 95.4388 40.53C95.3054 40.53 95.1854 40.39 95.0788 40.11C94.9854 39.8167 94.9321 39.4233 94.9188 38.93C94.0388 39.97 93.0854 40.49 92.0588 40.49C91.3254 40.49 90.7454 40.2633 90.3188 39.81C89.9054 39.3433 89.6988 38.7367 89.6988 37.99V35.05C89.6988 34.1833 89.4921 33.75 89.0788 33.75C88.9321 33.75 88.7654 33.7967 88.5788 33.89H88.5588C88.5054 33.89 88.4654 33.8567 88.4388 33.79C88.4121 33.71 88.4188 33.6633 88.4588 33.65L91.1388 32.37L91.2388 32.35C91.3054 32.35 91.3721 32.3833 91.4388 32.45C91.5188 32.5033 91.5588 32.5567 91.5588 32.61V37.03C91.5588 38.47 92.1121 39.19 93.2188 39.19C93.5121 39.19 93.8054 39.13 94.0987 39.01C94.4054 38.8767 94.6788 38.6967 94.9188 38.47V35.05C94.9188 34.1833 94.7121 33.75 94.2988 33.75C94.1521 33.75 93.9788 33.7967 93.7788 33.89H93.7588C93.7188 33.89 93.6854 33.8567 93.6588 33.79C93.6321 33.71 93.6388 33.6633 93.6788 33.65L96.3588 32.37C96.3854 32.3567 96.4188 32.35 96.4588 32.35C96.5254 32.35 96.5921 32.3833 96.6588 32.45C96.7388 32.5033 96.7788 32.5567 96.7788 32.61V37.93C96.7788 38.3833 96.8188 38.7033 96.8988 38.89C96.9921 39.0767 97.1388 39.17 97.3388 39.17C97.5254 39.17 97.7988 39.0967 98.1588 38.95H98.1988ZM113.496 40.01C113.55 40.01 113.576 40.05 113.576 40.13C113.576 40.21 113.55 40.25 113.496 40.25C113.15 40.25 112.876 40.2433 112.676 40.23L111.476 40.21L110.316 40.23C110.103 40.2433 109.823 40.25 109.476 40.25C109.436 40.25 109.416 40.21 109.416 40.13C109.416 40.05 109.436 40.01 109.476 40.01C109.89 40.01 110.17 39.9167 110.316 39.73C110.476 39.53 110.556 39.1633 110.556 38.63V35.75C110.556 35.03 110.43 34.4967 110.176 34.15C109.936 33.8033 109.563 33.63 109.056 33.63C108.71 33.63 108.37 33.7033 108.036 33.85C107.703 33.9967 107.416 34.1967 107.176 34.45V34.57V38.63C107.176 39.1633 107.25 39.53 107.396 39.73C107.556 39.9167 107.843 40.01 108.256 40.01C108.31 40.01 108.336 40.05 108.336 40.13C108.336 40.21 108.31 40.25 108.256 40.25C107.91 40.25 107.636 40.2433 107.436 40.23L106.236 40.21L105.076 40.23C104.863 40.2433 104.583 40.25 104.236 40.25C104.196 40.25 104.176 40.21 104.176 40.13C104.176 40.05 104.196 40.01 104.236 40.01C104.65 40.01 104.93 39.9167 105.076 39.73C105.236 39.53 105.316 39.1633 105.316 38.63V35.75C105.316 35.03 105.19 34.4967 104.936 34.15C104.696 33.8033 104.323 33.63 103.816 33.63C103.496 33.63 103.176 33.6967 102.856 33.83C102.55 33.95 102.276 34.1233 102.036 34.35V38.63C102.036 39.1633 102.11 39.53 102.256 39.73C102.416 39.9167 102.703 40.01 103.116 40.01C103.156 40.01 103.176 40.05 103.176 40.13C103.176 40.21 103.156 40.25 103.116 40.25C102.77 40.25 102.496 40.2433 102.296 40.23L101.096 40.21L99.9164 40.23C99.7164 40.2433 99.4431 40.25 99.0964 40.25C99.0564 40.25 99.0364 40.21 99.0364 40.13C99.0364 40.05 99.0564 40.01 99.0964 40.01C99.5097 40.01 99.7897 39.9167 99.9364 39.73C100.083 39.53 100.156 39.1633 100.156 38.63V34.87C100.156 34.4567 100.103 34.1567 99.9964 33.97C99.9031 33.77 99.7497 33.67 99.5364 33.67C99.3097 33.67 98.9897 33.7633 98.5764 33.95H98.5364C98.4964 33.95 98.4631 33.9167 98.4364 33.85C98.4231 33.7833 98.4297 33.7433 98.4564 33.73L101.236 32.37C101.316 32.3433 101.363 32.33 101.376 32.33C101.523 32.33 101.663 32.4767 101.796 32.77C101.93 33.05 102.01 33.43 102.036 33.91C102.943 32.83 103.916 32.29 104.956 32.29C105.583 32.29 106.083 32.4433 106.456 32.75C106.83 33.0567 107.056 33.4967 107.136 34.07C108.056 32.8833 109.076 32.29 110.196 32.29C110.916 32.29 111.463 32.4967 111.836 32.91C112.223 33.3233 112.416 33.95 112.416 34.79V38.63C112.416 39.1633 112.49 39.53 112.636 39.73C112.796 39.9167 113.083 40.01 113.496 40.01ZM122.243 39.17C122.297 39.17 122.33 39.2033 122.343 39.27C122.37 39.3233 122.357 39.3633 122.303 39.39L120.243 40.37C120.19 40.3967 120.123 40.41 120.043 40.41C119.843 40.41 119.643 40.31 119.443 40.11C119.257 39.91 119.123 39.6367 119.043 39.29L118.123 39.79C117.777 39.9633 117.417 40.11 117.043 40.23C116.67 40.3367 116.337 40.39 116.043 40.39C115.617 40.39 115.277 40.2833 115.023 40.07C114.783 39.8433 114.663 39.5233 114.663 39.11C114.663 38.8033 114.737 38.5567 114.883 38.37C115.043 38.1833 115.263 38.03 115.543 37.91C115.837 37.7767 116.297 37.6033 116.923 37.39L118.963 36.73V35.15C118.963 34.35 118.883 33.7633 118.723 33.39C118.563 33.0033 118.303 32.81 117.943 32.81C117.623 32.81 117.37 32.93 117.183 33.17C116.997 33.41 116.883 33.8033 116.843 34.35C116.763 35.0967 116.37 35.47 115.663 35.47C115.037 35.47 114.723 35.1967 114.723 34.65C114.723 34.29 114.95 33.93 115.403 33.57C115.857 33.21 116.403 32.9167 117.043 32.69C117.683 32.4633 118.243 32.35 118.723 32.35C119.35 32.35 119.857 32.5367 120.243 32.91C120.643 33.2833 120.843 33.83 120.843 34.55V38.09C120.843 38.4767 120.91 38.7767 121.043 38.99C121.19 39.2033 121.39 39.31 121.643 39.31C121.83 39.31 122.023 39.2633 122.223 39.17H122.243ZM118.983 38.97C118.97 38.8767 118.963 38.7367 118.963 38.55V37.07L117.863 37.47C117.503 37.6033 117.243 37.75 117.083 37.91C116.937 38.07 116.863 38.2633 116.863 38.49C116.863 38.77 116.943 38.99 117.103 39.15C117.263 39.31 117.463 39.39 117.703 39.39C117.997 39.39 118.337 39.2967 118.723 39.11L118.983 38.97ZM115.623 30.77C115.57 30.77 115.523 30.7367 115.483 30.67C115.443 30.59 115.423 30.4967 115.423 30.39C115.423 30.2967 115.443 30.2167 115.483 30.15C115.523 30.07 115.57 30.03 115.623 30.03H120.643C120.71 30.03 120.763 30.07 120.803 30.15C120.843 30.2167 120.863 30.2967 120.863 30.39C120.863 30.4967 120.843 30.59 120.803 30.67C120.763 30.7367 120.71 30.77 120.643 30.77H115.623ZM132.461 40.01C132.501 40.01 132.521 40.05 132.521 40.13C132.521 40.21 132.501 40.25 132.461 40.25C132.115 40.25 131.841 40.2433 131.641 40.23L130.441 40.21L129.281 40.23C129.068 40.2433 128.788 40.25 128.441 40.25C128.401 40.25 128.381 40.21 128.381 40.13C128.381 40.05 128.401 40.01 128.441 40.01C128.855 40.01 129.135 39.9167 129.281 39.73C129.428 39.53 129.501 39.1633 129.501 38.63V35.75C129.501 35.03 129.368 34.4967 129.101 34.15C128.848 33.8033 128.441 33.63 127.881 33.63C127.561 33.63 127.228 33.6967 126.881 33.83C126.548 33.9633 126.255 34.1433 126.001 34.37V38.63C126.001 39.1633 126.075 39.53 126.221 39.73C126.381 39.9167 126.668 40.01 127.081 40.01C127.121 40.01 127.141 40.05 127.141 40.13C127.141 40.21 127.121 40.25 127.081 40.25C126.735 40.25 126.461 40.2433 126.261 40.23L125.061 40.21L123.881 40.23C123.681 40.2433 123.408 40.25 123.061 40.25C123.021 40.25 123.001 40.21 123.001 40.13C123.001 40.05 123.021 40.01 123.061 40.01C123.475 40.01 123.755 39.9167 123.901 39.73C124.048 39.53 124.121 39.1633 124.121 38.63V34.87C124.121 34.4567 124.068 34.1567 123.961 33.97C123.868 33.77 123.715 33.67 123.501 33.67C123.275 33.67 122.955 33.7633 122.541 33.95H122.501C122.461 33.95 122.428 33.9167 122.401 33.85C122.388 33.7833 122.395 33.7433 122.421 33.73L125.201 32.37C125.281 32.3433 125.328 32.33 125.341 32.33C125.488 32.33 125.628 32.4767 125.761 32.77C125.895 33.05 125.975 33.4367 126.001 33.93C126.921 32.8367 127.935 32.29 129.041 32.29C129.761 32.29 130.328 32.5233 130.741 32.99C131.168 33.4433 131.381 34.0433 131.381 34.79V38.63C131.381 39.1633 131.455 39.53 131.601 39.73C131.761 39.9167 132.048 40.01 132.461 40.01Z" fill="white"/>
<defs>
<clipPath id="clip0">
<rect width="34.375" height="44" fill="white" transform="translate(6.125 0.25)"/>
</clipPath>
</defs>
</svg>
