<svg width="182" height="48" viewBox="0 0 182 48" fill="none" xmlns="http://www.w3.org/2000/svg">
<g clip-path="url(#clip0)">
<path d="M33.9891 38.9526C33.6478 35.9009 33.9219 31.0681 33.782 28.6546C33.8492 28.6546 33.9163 28.5153 33.9891 28.5153C33.9891 28.4457 33.9219 28.4457 33.9219 28.5153C34.1289 27.5232 35.4997 28.3007 36.5235 28.0164C36.5235 26.74 38.1684 27.2331 38.4426 26.3107C38.1684 26.096 37.9614 26.1714 38.0342 25.6725C37.1446 25.6725 37.0047 24.6804 36.1151 24.6804C36.048 24.6108 36.1823 23.8972 36.1823 23.8972C36.1823 23.8972 34.0618 23.8972 33.5135 23.8276C33.5135 19.923 31.8686 18.9541 31.3203 15.6124C31.186 15.5427 31.186 15.3281 30.979 15.3977C30.979 15.183 27.4878 12.2706 26.6653 11.4235C26.4583 11.4235 26.3241 11.4235 26.117 11.4235C26.3241 10.6403 25.8429 10.2168 26.0499 9.50899C25.5016 8.87081 24.3379 8.87081 24.612 7.66406C24.405 7.37977 24.0637 7.24053 23.9294 6.88083C23.9294 6.52692 24.1365 6.52692 24.2036 6.24264C24.2036 5.88874 23.7224 5.88874 23.5882 5.60446C23.5882 5.32017 23.8623 5.46522 23.8623 5.25055C23.521 4.82703 23.521 4.32809 23.3811 3.6899C23.3811 3.62028 23.3811 3.55066 23.3811 3.55066C23.3811 3.55066 23.3811 3.55066 23.3811 3.62028C23.3811 3.62028 23.3811 3.62028 23.3811 3.55066C23.3811 3.55066 23.3811 3.62028 23.3811 3.6899C23.2469 4.32809 23.2469 4.82703 22.9 5.25055C22.9 5.46522 23.2413 5.38979 23.1741 5.60446C23.107 5.81912 22.5587 5.88874 22.5587 6.24264C22.6258 6.4573 22.9 6.52692 22.8328 6.88083C22.6986 7.23473 22.3517 7.30435 22.1503 7.66406C22.4244 8.87081 21.2607 8.87081 20.7124 9.50899C20.9194 10.2168 20.4382 10.6461 20.6452 11.4235C20.4382 11.4235 20.304 11.4235 20.0969 11.4235C19.3416 12.2764 15.7833 15.1888 15.7833 15.3977C15.5763 15.3977 15.5091 15.5369 15.442 15.6124C14.8937 18.9483 13.1817 19.8476 13.2488 23.8276C12.7005 23.8972 10.58 23.8972 10.58 23.8972C10.58 23.8972 10.7143 24.605 10.6472 24.6804C9.75759 24.6804 9.61772 25.6725 8.72813 25.6725C8.79527 26.096 8.52112 26.0264 8.3197 26.3107C8.59385 27.2331 10.2387 26.7342 10.2387 28.0164C11.2682 28.3007 12.6334 27.5174 12.8404 28.5153C12.8404 28.5153 12.7732 28.4457 12.7732 28.5153C12.9075 28.5153 12.9075 28.6546 12.9802 28.6546C12.846 31.0681 13.0474 35.8951 12.7732 38.9526C10.1045 38.7379 7.97841 39.1672 6.40625 40.0201V43.7099H23.3084H40.2218V40.0201C38.7167 39.0918 36.6634 38.7321 33.9891 38.9526ZM27.5549 39.0918H19.4759V26.0264C19.4759 26.0264 20.8467 23.8276 23.4483 23.8276C25.9828 23.8276 27.5549 26.0264 27.5549 26.0264V39.0918Z" fill="white" stroke="white" stroke-width="0.5" stroke-miterlimit="10"/>
<path d="M23.375 3.61443V2.77319V0.452515L26.3683 1.89133L23.375 2.77319" fill="white"/>
<path d="M23.375 3.61443V2.77319V0.452515L26.3683 1.89133L23.375 2.77319" stroke="white" stroke-width="0.5" stroke-miterlimit="10"/>
</g>
<path d="M57.48 9.52C57.48 10 57.6 10.4267 57.84 10.8C58.0933 11.1733 58.4 11.5 58.76 11.78C59.12 12.06 59.6067 12.4 60.22 12.8C60.8867 13.2267 61.42 13.6 61.82 13.92C62.22 14.24 62.56 14.6333 62.84 15.1C63.12 15.5533 63.26 16.08 63.26 16.68C63.26 17.3733 63.0733 17.9933 62.7 18.54C62.3267 19.0733 61.8067 19.4933 61.14 19.8C60.4867 20.0933 59.7533 20.24 58.94 20.24C58.34 20.24 57.7133 20.16 57.06 20C56.4067 19.8267 55.9667 19.64 55.74 19.44C55.6733 19.3867 55.62 19.34 55.58 19.3C55.5533 19.2467 55.54 19.1667 55.54 19.06L55.48 15.88V15.86C55.48 15.8067 55.5133 15.78 55.58 15.78C55.6467 15.7667 55.6867 15.7867 55.7 15.84C56.1 16.6533 56.4467 17.3133 56.74 17.82C57.0467 18.3267 57.4267 18.7733 57.88 19.16C58.3467 19.5467 58.8733 19.74 59.46 19.74C59.9933 19.74 60.4333 19.6 60.78 19.32C61.1267 19.0267 61.3 18.5333 61.3 17.84C61.3 17.2533 61.1667 16.74 60.9 16.3C60.6467 15.86 60.3333 15.4867 59.96 15.18C59.5867 14.8733 59.0733 14.5067 58.42 14.08C57.78 13.6667 57.28 13.3133 56.92 13.02C56.5733 12.7267 56.2733 12.3733 56.02 11.96C55.7667 11.5467 55.64 11.06 55.64 10.5C55.64 9.79333 55.84 9.2 56.24 8.72C56.6533 8.22667 57.18 7.86667 57.82 7.64C58.46 7.4 59.1333 7.28 59.84 7.28C60.3067 7.28 60.78 7.32667 61.26 7.42C61.74 7.5 62.1267 7.6 62.42 7.72C62.54 7.77333 62.62 7.83333 62.66 7.9C62.7 7.95333 62.72 8.02667 62.72 8.12V11.06C62.72 11.1 62.6867 11.1333 62.62 11.16C62.5533 11.1733 62.5133 11.16 62.5 11.12L62.34 10.74C62.0067 9.9 61.6133 9.18667 61.16 8.6C60.72 8.01333 60.1 7.72 59.3 7.72C58.7667 7.72 58.3267 7.87333 57.98 8.18C57.6467 8.48667 57.48 8.93333 57.48 9.52ZM72.673 18.92C72.7263 18.92 72.7596 18.9533 72.773 19.02C72.7996 19.0733 72.7863 19.1133 72.733 19.14L70.673 20.12C70.6196 20.1467 70.553 20.16 70.473 20.16C70.273 20.16 70.073 20.06 69.873 19.86C69.6863 19.66 69.553 19.3867 69.473 19.04L68.553 19.54C68.2063 19.7133 67.8463 19.86 67.473 19.98C67.0996 20.0867 66.7663 20.14 66.473 20.14C66.0463 20.14 65.7063 20.0333 65.453 19.82C65.213 19.5933 65.093 19.2733 65.093 18.86C65.093 18.5533 65.1663 18.3067 65.313 18.12C65.473 17.9333 65.693 17.78 65.973 17.66C66.2663 17.5267 66.7263 17.3533 67.353 17.14L69.393 16.48V14.9C69.393 14.1 69.313 13.5133 69.153 13.14C68.993 12.7533 68.733 12.56 68.373 12.56C68.053 12.56 67.7996 12.68 67.613 12.92C67.4263 13.16 67.313 13.5533 67.273 14.1C67.193 14.8467 66.7996 15.22 66.093 15.22C65.4663 15.22 65.153 14.9467 65.153 14.4C65.153 14.04 65.3796 13.68 65.833 13.32C66.2863 12.96 66.833 12.6667 67.473 12.44C68.113 12.2133 68.673 12.1 69.153 12.1C69.7796 12.1 70.2863 12.2867 70.673 12.66C71.073 13.0333 71.273 13.58 71.273 14.3V17.84C71.273 18.2267 71.3396 18.5267 71.473 18.74C71.6196 18.9533 71.8196 19.06 72.073 19.06C72.2596 19.06 72.453 19.0133 72.653 18.92H72.673ZM69.413 18.72C69.3996 18.6267 69.393 18.4867 69.393 18.3V16.82L68.293 17.22C67.933 17.3533 67.673 17.5 67.513 17.66C67.3663 17.82 67.293 18.0133 67.293 18.24C67.293 18.52 67.373 18.74 67.533 18.9C67.693 19.06 67.893 19.14 68.133 19.14C68.4263 19.14 68.7663 19.0467 69.153 18.86L69.413 18.72ZM82.8909 19.76C82.9309 19.76 82.9509 19.8 82.9509 19.88C82.9509 19.96 82.9309 20 82.8909 20C82.5443 20 82.2709 19.9933 82.0709 19.98L80.8709 19.96L79.7109 19.98C79.4976 19.9933 79.2176 20 78.8709 20C78.8309 20 78.8109 19.96 78.8109 19.88C78.8109 19.8 78.8309 19.76 78.8709 19.76C79.2843 19.76 79.5643 19.6667 79.7109 19.48C79.8576 19.28 79.9309 18.9133 79.9309 18.38V15.5C79.9309 14.78 79.7976 14.2467 79.5309 13.9C79.2776 13.5533 78.8709 13.38 78.3109 13.38C77.9909 13.38 77.6576 13.4467 77.3109 13.58C76.9776 13.7133 76.6843 13.8933 76.4309 14.12V18.38C76.4309 18.9133 76.5043 19.28 76.6509 19.48C76.8109 19.6667 77.0976 19.76 77.5109 19.76C77.5509 19.76 77.5709 19.8 77.5709 19.88C77.5709 19.96 77.5509 20 77.5109 20C77.1643 20 76.8909 19.9933 76.6909 19.98L75.4909 19.96L74.3109 19.98C74.1109 19.9933 73.8376 20 73.4909 20C73.4509 20 73.4309 19.96 73.4309 19.88C73.4309 19.8 73.4509 19.76 73.4909 19.76C73.9043 19.76 74.1843 19.6667 74.3309 19.48C74.4776 19.28 74.5509 18.9133 74.5509 18.38V14.62C74.5509 14.2067 74.4976 13.9067 74.3909 13.72C74.2976 13.52 74.1443 13.42 73.9309 13.42C73.7043 13.42 73.3843 13.5133 72.9709 13.7H72.9309C72.8909 13.7 72.8576 13.6667 72.8309 13.6C72.8176 13.5333 72.8243 13.4933 72.8509 13.48L75.6309 12.12C75.7109 12.0933 75.7576 12.08 75.7709 12.08C75.9176 12.08 76.0576 12.2267 76.1909 12.52C76.3243 12.8 76.4043 13.1867 76.4309 13.68C77.3509 12.5867 78.3643 12.04 79.4709 12.04C80.1909 12.04 80.7576 12.2733 81.1709 12.74C81.5976 13.1933 81.8109 13.7933 81.8109 14.54V18.38C81.8109 18.9133 81.8843 19.28 82.0309 19.48C82.1909 19.6667 82.4776 19.76 82.8909 19.76ZM93.1783 19.76C93.2183 19.76 93.2383 19.8 93.2383 19.88C93.2383 19.96 93.2183 20 93.1783 20C92.8316 20 92.5583 19.9933 92.3583 19.98L91.1583 19.96L89.6183 19.98C89.3916 19.9933 89.0849 20 88.6983 20C88.6583 20 88.6383 19.96 88.6383 19.88C88.6383 19.8 88.6583 19.76 88.6983 19.76C89.1783 19.76 89.4183 19.62 89.4183 19.34C89.4183 19.1933 89.3649 19.06 89.2583 18.94L86.9783 16.02L86.5983 16.36V18.38C86.5983 18.9133 86.6716 19.28 86.8183 19.48C86.9783 19.6667 87.2649 19.76 87.6783 19.76C87.7316 19.76 87.7583 19.8 87.7583 19.88C87.7583 19.96 87.7316 20 87.6783 20C87.3316 20 87.0516 19.9933 86.8383 19.98L85.6783 19.96L84.4783 19.98C84.2783 19.9933 84.0049 20 83.6583 20C83.6316 20 83.6183 19.96 83.6183 19.88C83.6183 19.8 83.6316 19.76 83.6583 19.76C84.0716 19.76 84.3516 19.6667 84.4983 19.48C84.6583 19.28 84.7383 18.9133 84.7383 18.38V8.22C84.7383 7.75333 84.6916 7.42 84.5983 7.22C84.5183 7.02 84.3716 6.92 84.1583 6.92C83.9716 6.92 83.7183 6.99333 83.3983 7.14H83.3783C83.3383 7.14 83.2983 7.10667 83.2583 7.04C83.2316 6.96 83.2316 6.91333 83.2583 6.9L86.1783 5.52L86.2783 5.5C86.3449 5.5 86.4116 5.53333 86.4783 5.6C86.5583 5.65333 86.5983 5.70667 86.5983 5.76V15.9L88.4583 14.1C88.8049 13.78 88.9783 13.4533 88.9783 13.12C88.9783 12.9467 88.9116 12.8067 88.7783 12.7C88.6449 12.58 88.4583 12.52 88.2183 12.52C88.1916 12.52 88.1783 12.48 88.1783 12.4C88.1783 12.32 88.1916 12.28 88.2183 12.28C88.6049 12.28 88.9049 12.2867 89.1183 12.3L90.6983 12.32L92.1583 12.3C92.3449 12.2867 92.6049 12.28 92.9383 12.28C92.9783 12.28 92.9983 12.32 92.9983 12.4C92.9983 12.48 92.9783 12.52 92.9383 12.52C92.3649 12.52 91.7049 12.6667 90.9583 12.96C90.2249 13.24 89.5649 13.6533 88.9783 14.2L88.2583 14.86L90.9983 18.38C91.3849 18.86 91.7516 19.2133 92.0983 19.44C92.4583 19.6533 92.8183 19.76 93.1783 19.76ZM101.443 18.92C101.496 18.92 101.529 18.9533 101.543 19.02C101.569 19.0733 101.556 19.1133 101.503 19.14L99.4425 20.12C99.3892 20.1467 99.3225 20.16 99.2425 20.16C99.0425 20.16 98.8425 20.06 98.6425 19.86C98.4558 19.66 98.3225 19.3867 98.2425 19.04L97.3225 19.54C96.9758 19.7133 96.6158 19.86 96.2425 19.98C95.8692 20.0867 95.5358 20.14 95.2425 20.14C94.8158 20.14 94.4758 20.0333 94.2225 19.82C93.9825 19.5933 93.8625 19.2733 93.8625 18.86C93.8625 18.5533 93.9358 18.3067 94.0825 18.12C94.2425 17.9333 94.4625 17.78 94.7425 17.66C95.0358 17.5267 95.4958 17.3533 96.1225 17.14L98.1625 16.48V14.9C98.1625 14.1 98.0825 13.5133 97.9225 13.14C97.7625 12.7533 97.5025 12.56 97.1425 12.56C96.8225 12.56 96.5692 12.68 96.3825 12.92C96.1958 13.16 96.0825 13.5533 96.0425 14.1C95.9625 14.8467 95.5692 15.22 94.8625 15.22C94.2358 15.22 93.9225 14.9467 93.9225 14.4C93.9225 14.04 94.1492 13.68 94.6025 13.32C95.0558 12.96 95.6025 12.6667 96.2425 12.44C96.8825 12.2133 97.4425 12.1 97.9225 12.1C98.5492 12.1 99.0558 12.2867 99.4425 12.66C99.8425 13.0333 100.043 13.58 100.043 14.3V17.84C100.043 18.2267 100.109 18.5267 100.243 18.74C100.389 18.9533 100.589 19.06 100.843 19.06C101.029 19.06 101.223 19.0133 101.423 18.92H101.443ZM98.1825 18.72C98.1692 18.6267 98.1625 18.4867 98.1625 18.3V16.82L97.0625 17.22C96.7025 17.3533 96.4425 17.5 96.2825 17.66C96.1358 17.82 96.0625 18.0133 96.0625 18.24C96.0625 18.52 96.1425 18.74 96.3025 18.9C96.4625 19.06 96.6625 19.14 96.9025 19.14C97.1958 19.14 97.5358 19.0467 97.9225 18.86L98.1825 18.72ZM107.96 18.6C108.014 18.6 108.054 18.6267 108.08 18.68C108.12 18.7333 108.12 18.7733 108.08 18.8C107.587 19.2933 107.107 19.66 106.64 19.9C106.174 20.1267 105.68 20.24 105.16 20.24C104.574 20.24 104.074 20.1 103.66 19.82C103.247 19.54 103.04 19.0667 103.04 18.4V13.96C103.04 13.5467 102.967 13.26 102.82 13.1C102.674 12.94 102.407 12.86 102.02 12.86C102.007 12.86 101.987 12.84 101.96 12.8C101.947 12.76 101.94 12.72 101.94 12.68C101.94 12.6267 101.947 12.5867 101.96 12.56C101.974 12.52 101.994 12.5 102.02 12.5C102.7 12.4733 103.247 12.3267 103.66 12.06C104.087 11.7933 104.414 11.3867 104.64 10.84C104.667 10.7867 104.72 10.76 104.8 10.76C104.894 10.76 104.94 10.7867 104.94 10.84V12.44C105.714 12.4267 106.58 12.3667 107.54 12.26C107.567 12.26 107.594 12.3133 107.62 12.42C107.66 12.5133 107.68 12.62 107.68 12.74C107.68 12.8733 107.654 13.0067 107.6 13.14C107.56 13.26 107.514 13.3133 107.46 13.3C106.594 13.1133 105.754 13.0133 104.94 13V17.74C104.94 18.2467 105.067 18.62 105.32 18.86C105.587 19.1 105.934 19.22 106.36 19.22C106.894 19.22 107.414 19.02 107.92 18.62L107.96 18.6ZM105.24 24.14C104.854 24.14 104.554 24.0333 104.34 23.82C104.127 23.6067 104.02 23.3067 104.02 22.92C104.02 22.5733 104.127 22.2933 104.34 22.08C104.567 21.88 104.867 21.78 105.24 21.78C105.6 21.78 105.88 21.88 106.08 22.08C106.294 22.2933 106.4 22.5733 106.4 22.92C106.4 23.3067 106.3 23.6067 106.1 23.82C105.9 24.0333 105.614 24.14 105.24 24.14ZM129.547 19.76C129.573 19.76 129.587 19.8 129.587 19.88C129.587 19.96 129.573 20 129.547 20C129.093 20 128.733 19.9933 128.467 19.98L126.987 19.96L125.487 19.98C125.233 19.9933 124.887 20 124.447 20C124.407 20 124.387 19.96 124.387 19.88C124.387 19.8 124.407 19.76 124.447 19.76C125.007 19.76 125.387 19.6933 125.587 19.56C125.787 19.4267 125.887 19.1467 125.887 18.72L125.867 18.38L125.447 10.2L121.327 19.86C121.3 19.9133 121.247 19.94 121.167 19.94C121.087 19.94 121.033 19.9133 121.007 19.86L115.947 10.24L115.787 17.46C115.773 18.18 115.913 18.7467 116.207 19.16C116.513 19.56 116.94 19.76 117.487 19.76C117.527 19.76 117.547 19.8 117.547 19.88C117.547 19.96 117.527 20 117.487 20C117.127 20 116.847 19.9933 116.647 19.98L115.547 19.96L114.287 19.98C114.073 19.9933 113.787 20 113.427 20C113.387 20 113.367 19.96 113.367 19.88C113.367 19.8 113.387 19.76 113.427 19.76C113.973 19.76 114.407 19.5533 114.727 19.14C115.047 18.7267 115.213 18.1667 115.227 17.46L115.407 9.18L115.387 9.16C115.12 8.66667 114.84 8.30667 114.547 8.08C114.267 7.85333 113.94 7.74 113.567 7.74C113.527 7.74 113.507 7.7 113.507 7.62C113.507 7.54 113.527 7.5 113.567 7.5L114.507 7.52C114.693 7.53333 114.933 7.54 115.227 7.54L116.287 7.52C116.407 7.50667 116.56 7.5 116.747 7.5C116.92 7.5 117.053 7.56 117.147 7.68C117.24 7.8 117.413 8.08667 117.667 8.54L122.027 16.72L125.827 8C125.907 7.81333 125.987 7.68667 126.067 7.62C126.16 7.54 126.28 7.5 126.427 7.5C126.547 7.5 126.68 7.50667 126.827 7.52C126.987 7.53333 127.167 7.54 127.367 7.54L128.547 7.52C128.733 7.50667 129 7.5 129.347 7.5C129.387 7.5 129.407 7.54 129.407 7.62C129.407 7.7 129.387 7.74 129.347 7.74C128.72 7.74 128.267 7.86667 127.987 8.12C127.707 8.37333 127.58 8.76667 127.607 9.3L128.087 18.38C128.113 18.7933 128.16 19.0933 128.227 19.28C128.307 19.4667 128.44 19.5933 128.627 19.66C128.827 19.7267 129.133 19.76 129.547 19.76ZM134.775 20.26C133.948 20.26 133.222 20.0733 132.595 19.7C131.982 19.3133 131.508 18.8 131.175 18.16C130.842 17.5067 130.675 16.8 130.675 16.04C130.675 15.1733 130.895 14.44 131.335 13.84C131.775 13.2267 132.335 12.7733 133.015 12.48C133.695 12.1733 134.395 12.02 135.115 12.02C135.942 12.02 136.662 12.2133 137.275 12.6C137.888 12.9867 138.355 13.5 138.675 14.14C139.008 14.7667 139.175 15.44 139.175 16.16C139.175 16.96 138.975 17.6733 138.575 18.3C138.175 18.9133 137.635 19.3933 136.955 19.74C136.288 20.0867 135.562 20.26 134.775 20.26ZM135.375 19.84C135.895 19.84 136.288 19.5867 136.555 19.08C136.835 18.56 136.975 17.82 136.975 16.86C136.975 15.9267 136.855 15.1267 136.615 14.46C136.375 13.7933 136.062 13.2933 135.675 12.96C135.288 12.6133 134.875 12.44 134.435 12.44C133.368 12.44 132.835 13.3933 132.835 15.3C132.835 16.1933 132.948 16.9867 133.175 17.68C133.402 18.36 133.708 18.8933 134.095 19.28C134.482 19.6533 134.908 19.84 135.375 19.84ZM144.5 20.24C143.62 20.24 142.874 20.0533 142.26 19.68C141.66 19.2933 141.207 18.8 140.9 18.2C140.607 17.5867 140.46 16.9467 140.46 16.28C140.46 15.44 140.694 14.7067 141.16 14.08C141.627 13.44 142.22 12.9533 142.94 12.62C143.674 12.2733 144.42 12.1 145.18 12.1C145.82 12.1 146.394 12.2333 146.9 12.5C147.42 12.7667 147.68 13.1333 147.68 13.6C147.68 13.8533 147.58 14.0733 147.38 14.26C147.194 14.4333 146.927 14.52 146.58 14.52C146.26 14.52 146.007 14.44 145.82 14.28C145.634 14.1067 145.48 13.8467 145.36 13.5C145.24 13.1267 145.12 12.8733 145 12.74C144.894 12.5933 144.694 12.52 144.4 12.52C143.827 12.52 143.367 12.8067 143.02 13.38C142.687 13.94 142.52 14.6867 142.52 15.62C142.52 16.7267 142.767 17.6133 143.26 18.28C143.754 18.9333 144.54 19.26 145.62 19.26C145.98 19.26 146.287 19.22 146.54 19.14C146.807 19.06 147.14 18.9267 147.54 18.74H147.56C147.6 18.74 147.634 18.76 147.66 18.8C147.7 18.84 147.707 18.8733 147.68 18.9C147.187 19.3533 146.694 19.6933 146.2 19.92C145.707 20.1333 145.14 20.24 144.5 20.24ZM158.136 19.76C158.19 19.76 158.216 19.8 158.216 19.88C158.216 19.96 158.19 20 158.136 20C157.79 20 157.51 19.9933 157.296 19.98L156.136 19.96L154.936 19.98C154.736 19.9933 154.463 20 154.116 20C154.09 20 154.076 19.96 154.076 19.88C154.076 19.8 154.09 19.76 154.116 19.76C154.53 19.76 154.81 19.6667 154.956 19.48C155.116 19.28 155.196 18.9133 155.196 18.38V15.5C155.196 14.78 155.063 14.2467 154.796 13.9C154.53 13.5533 154.116 13.38 153.556 13.38C153.236 13.38 152.903 13.4467 152.556 13.58C152.223 13.7133 151.93 13.8933 151.676 14.12V18.38C151.676 18.9133 151.75 19.28 151.896 19.48C152.056 19.6667 152.343 19.76 152.756 19.76C152.81 19.76 152.836 19.8 152.836 19.88C152.836 19.96 152.81 20 152.756 20C152.41 20 152.13 19.9933 151.916 19.98L150.756 19.96L149.556 19.98C149.356 19.9933 149.083 20 148.736 20C148.71 20 148.696 19.96 148.696 19.88C148.696 19.8 148.71 19.76 148.736 19.76C149.15 19.76 149.43 19.6667 149.576 19.48C149.736 19.28 149.816 18.9133 149.816 18.38V8.22C149.816 7.75333 149.77 7.42 149.676 7.22C149.596 7.02 149.45 6.92 149.236 6.92C149.05 6.92 148.796 6.99333 148.476 7.14H148.456C148.416 7.14 148.376 7.10667 148.336 7.04C148.31 6.96 148.31 6.91333 148.336 6.9L151.256 5.52L151.356 5.5C151.423 5.5 151.49 5.53333 151.556 5.6C151.636 5.65333 151.676 5.70667 151.676 5.76V13.68C152.623 12.5867 153.636 12.04 154.716 12.04C155.436 12.04 156.003 12.2733 156.416 12.74C156.843 13.1933 157.056 13.7933 157.056 14.54V18.38C157.056 18.9133 157.13 19.28 157.276 19.48C157.436 19.6667 157.723 19.76 158.136 19.76ZM166.872 18.92C166.926 18.92 166.959 18.9533 166.972 19.02C166.999 19.0733 166.986 19.1133 166.932 19.14L164.872 20.12C164.819 20.1467 164.752 20.16 164.672 20.16C164.472 20.16 164.272 20.06 164.072 19.86C163.886 19.66 163.752 19.3867 163.672 19.04L162.752 19.54C162.406 19.7133 162.046 19.86 161.672 19.98C161.299 20.0867 160.966 20.14 160.672 20.14C160.246 20.14 159.906 20.0333 159.652 19.82C159.412 19.5933 159.292 19.2733 159.292 18.86C159.292 18.5533 159.366 18.3067 159.512 18.12C159.672 17.9333 159.892 17.78 160.172 17.66C160.466 17.5267 160.926 17.3533 161.552 17.14L163.592 16.48V14.9C163.592 14.1 163.512 13.5133 163.352 13.14C163.192 12.7533 162.932 12.56 162.572 12.56C162.252 12.56 161.999 12.68 161.812 12.92C161.626 13.16 161.512 13.5533 161.472 14.1C161.392 14.8467 160.999 15.22 160.292 15.22C159.666 15.22 159.352 14.9467 159.352 14.4C159.352 14.04 159.579 13.68 160.032 13.32C160.486 12.96 161.032 12.6667 161.672 12.44C162.312 12.2133 162.872 12.1 163.352 12.1C163.979 12.1 164.486 12.2867 164.872 12.66C165.272 13.0333 165.472 13.58 165.472 14.3V17.84C165.472 18.2267 165.539 18.5267 165.672 18.74C165.819 18.9533 166.019 19.06 166.272 19.06C166.459 19.06 166.652 19.0133 166.852 18.92H166.872ZM163.612 18.72C163.599 18.6267 163.592 18.4867 163.592 18.3V16.82L162.492 17.22C162.132 17.3533 161.872 17.5 161.712 17.66C161.566 17.82 161.492 18.0133 161.492 18.24C161.492 18.52 161.572 18.74 161.732 18.9C161.892 19.06 162.092 19.14 162.332 19.14C162.626 19.14 162.966 19.0467 163.352 18.86L163.612 18.72ZM177.09 19.76C177.13 19.76 177.15 19.8 177.15 19.88C177.15 19.96 177.13 20 177.09 20C176.743 20 176.47 19.9933 176.27 19.98L175.07 19.96L173.91 19.98C173.697 19.9933 173.417 20 173.07 20C173.03 20 173.01 19.96 173.01 19.88C173.01 19.8 173.03 19.76 173.07 19.76C173.483 19.76 173.763 19.6667 173.91 19.48C174.057 19.28 174.13 18.9133 174.13 18.38V15.5C174.13 14.78 173.997 14.2467 173.73 13.9C173.477 13.5533 173.07 13.38 172.51 13.38C172.19 13.38 171.857 13.4467 171.51 13.58C171.177 13.7133 170.883 13.8933 170.63 14.12V18.38C170.63 18.9133 170.703 19.28 170.85 19.48C171.01 19.6667 171.297 19.76 171.71 19.76C171.75 19.76 171.77 19.8 171.77 19.88C171.77 19.96 171.75 20 171.71 20C171.363 20 171.09 19.9933 170.89 19.98L169.69 19.96L168.51 19.98C168.31 19.9933 168.037 20 167.69 20C167.65 20 167.63 19.96 167.63 19.88C167.63 19.8 167.65 19.76 167.69 19.76C168.103 19.76 168.383 19.6667 168.53 19.48C168.677 19.28 168.75 18.9133 168.75 18.38V14.62C168.75 14.2067 168.697 13.9067 168.59 13.72C168.497 13.52 168.343 13.42 168.13 13.42C167.903 13.42 167.583 13.5133 167.17 13.7H167.13C167.09 13.7 167.057 13.6667 167.03 13.6C167.017 13.5333 167.023 13.4933 167.05 13.48L169.83 12.12C169.91 12.0933 169.957 12.08 169.97 12.08C170.117 12.08 170.257 12.2267 170.39 12.52C170.523 12.8 170.603 13.1867 170.63 13.68C171.55 12.5867 172.563 12.04 173.67 12.04C174.39 12.04 174.957 12.2733 175.37 12.74C175.797 13.1933 176.01 13.7933 176.01 14.54V18.38C176.01 18.9133 176.083 19.28 176.23 19.48C176.39 19.6667 176.677 19.76 177.09 19.76ZM68.64 39.76C68.68 39.76 68.7 39.8 68.7 39.88C68.7 39.96 68.68 40 68.64 40C68.1733 40 67.8 39.9933 67.52 39.98L65.98 39.96L64.18 39.98C63.94 39.9933 63.6133 40 63.2 40C63.16 40 63.14 39.96 63.14 39.88C63.14 39.8 63.16 39.76 63.2 39.76C63.6933 39.76 64.0533 39.7267 64.28 39.66C64.5067 39.5933 64.66 39.4667 64.74 39.28C64.82 39.0933 64.86 38.7933 64.86 38.38V33.78H58.4V38.38C58.4 38.78 58.44 39.08 58.52 39.28C58.6 39.4667 58.7533 39.5933 58.98 39.66C59.2067 39.7267 59.5667 39.76 60.06 39.76C60.0867 39.76 60.1 39.8 60.1 39.88C60.1 39.96 60.0867 40 60.06 40C59.5933 40 59.22 39.9933 58.94 39.98L57.2 39.96L55.7 39.98C55.4333 39.9933 55.0667 40 54.6 40C54.5733 40 54.56 39.96 54.56 39.88C54.56 39.8 54.5733 39.76 54.6 39.76C55.0667 39.76 55.4067 39.7267 55.62 39.66C55.8333 39.5933 55.98 39.4667 56.06 39.28C56.14 39.08 56.18 38.78 56.18 38.38V29.12C56.18 28.72 56.14 28.4267 56.06 28.24C55.98 28.0533 55.8333 27.9267 55.62 27.86C55.42 27.78 55.0933 27.74 54.64 27.74C54.6 27.74 54.58 27.7 54.58 27.62C54.58 27.54 54.6 27.5 54.64 27.5L55.72 27.52C56.3333 27.5467 56.8267 27.56 57.2 27.56C57.7067 27.56 58.2933 27.5467 58.96 27.52L60.06 27.5C60.0867 27.5 60.1 27.54 60.1 27.62C60.1 27.7 60.0867 27.74 60.06 27.74C59.58 27.74 59.2267 27.78 59 27.86C58.7733 27.94 58.6133 28.08 58.52 28.28C58.44 28.4667 58.4 28.76 58.4 29.16V33.22H64.86V29.16C64.86 28.76 64.82 28.4667 64.74 28.28C64.66 28.08 64.5067 27.94 64.28 27.86C64.0533 27.78 63.6933 27.74 63.2 27.74C63.16 27.74 63.14 27.7 63.14 27.62C63.14 27.54 63.16 27.5 63.2 27.5L64.18 27.52C64.8467 27.5467 65.4467 27.56 65.98 27.56C66.34 27.56 66.8533 27.5467 67.52 27.52L68.64 27.5C68.68 27.5 68.7 27.54 68.7 27.62C68.7 27.7 68.68 27.74 68.64 27.74C68.1867 27.74 67.8467 27.78 67.62 27.86C67.4067 27.9267 67.26 28.0533 67.18 28.24C67.1133 28.4267 67.08 28.72 67.08 29.12V38.38C67.08 38.78 67.1133 39.08 67.18 39.28C67.26 39.4667 67.4067 39.5933 67.62 39.66C67.8333 39.7267 68.1733 39.76 68.64 39.76ZM77.6534 38.92C77.7068 38.92 77.7401 38.9533 77.7534 39.02C77.7801 39.0733 77.7668 39.1133 77.7134 39.14L75.6534 40.12C75.6001 40.1467 75.5334 40.16 75.4534 40.16C75.2534 40.16 75.0534 40.06 74.8534 39.86C74.6668 39.66 74.5334 39.3867 74.4534 39.04L73.5334 39.54C73.1868 39.7133 72.8268 39.86 72.4534 39.98C72.0801 40.0867 71.7468 40.14 71.4534 40.14C71.0268 40.14 70.6868 40.0333 70.4334 39.82C70.1934 39.5933 70.0734 39.2733 70.0734 38.86C70.0734 38.5533 70.1468 38.3067 70.2934 38.12C70.4534 37.9333 70.6734 37.78 70.9534 37.66C71.2468 37.5267 71.7068 37.3533 72.3334 37.14L74.3734 36.48V34.9C74.3734 34.1 74.2934 33.5133 74.1334 33.14C73.9734 32.7533 73.7134 32.56 73.3534 32.56C73.0334 32.56 72.7801 32.68 72.5934 32.92C72.4068 33.16 72.2934 33.5533 72.2534 34.1C72.1734 34.8467 71.7801 35.22 71.0734 35.22C70.4468 35.22 70.1334 34.9467 70.1334 34.4C70.1334 34.04 70.3601 33.68 70.8134 33.32C71.2668 32.96 71.8134 32.6667 72.4534 32.44C73.0934 32.2133 73.6534 32.1 74.1334 32.1C74.7601 32.1 75.2668 32.2867 75.6534 32.66C76.0534 33.0333 76.2534 33.58 76.2534 34.3V37.84C76.2534 38.2267 76.3201 38.5267 76.4534 38.74C76.6001 38.9533 76.8001 39.06 77.0534 39.06C77.2401 39.06 77.4334 39.0133 77.6334 38.92H77.6534ZM74.3934 38.72C74.3801 38.6267 74.3734 38.4867 74.3734 38.3V36.82L73.2734 37.22C72.9134 37.3533 72.6534 37.5 72.4934 37.66C72.3468 37.82 72.2734 38.0133 72.2734 38.24C72.2734 38.52 72.3534 38.74 72.5134 38.9C72.6734 39.06 72.8734 39.14 73.1134 39.14C73.4068 39.14 73.7468 39.0467 74.1334 38.86L74.3934 38.72ZM87.8714 39.76C87.9114 39.76 87.9314 39.8 87.9314 39.88C87.9314 39.96 87.9114 40 87.8714 40C87.5247 40 87.2514 39.9933 87.0514 39.98L85.8514 39.96L84.6914 39.98C84.4781 39.9933 84.1981 40 83.8514 40C83.8114 40 83.7914 39.96 83.7914 39.88C83.7914 39.8 83.8114 39.76 83.8514 39.76C84.2647 39.76 84.5447 39.6667 84.6914 39.48C84.8381 39.28 84.9114 38.9133 84.9114 38.38V35.5C84.9114 34.78 84.7781 34.2467 84.5114 33.9C84.2581 33.5533 83.8514 33.38 83.2914 33.38C82.9714 33.38 82.6381 33.4467 82.2914 33.58C81.9581 33.7133 81.6647 33.8933 81.4114 34.12V38.38C81.4114 38.9133 81.4847 39.28 81.6314 39.48C81.7914 39.6667 82.0781 39.76 82.4914 39.76C82.5314 39.76 82.5514 39.8 82.5514 39.88C82.5514 39.96 82.5314 40 82.4914 40C82.1447 40 81.8714 39.9933 81.6714 39.98L80.4714 39.96L79.2914 39.98C79.0914 39.9933 78.8181 40 78.4714 40C78.4314 40 78.4114 39.96 78.4114 39.88C78.4114 39.8 78.4314 39.76 78.4714 39.76C78.8847 39.76 79.1647 39.6667 79.3114 39.48C79.4581 39.28 79.5314 38.9133 79.5314 38.38V34.62C79.5314 34.2067 79.4781 33.9067 79.3714 33.72C79.2781 33.52 79.1247 33.42 78.9114 33.42C78.6847 33.42 78.3647 33.5133 77.9514 33.7H77.9114C77.8714 33.7 77.8381 33.6667 77.8114 33.6C77.7981 33.5333 77.8047 33.4933 77.8314 33.48L80.6114 32.12C80.6914 32.0933 80.7381 32.08 80.7514 32.08C80.8981 32.08 81.0381 32.2267 81.1714 32.52C81.3047 32.8 81.3847 33.1867 81.4114 33.68C82.3314 32.5867 83.3447 32.04 84.4514 32.04C85.1714 32.04 85.7381 32.2733 86.1514 32.74C86.5781 33.1933 86.7914 33.7933 86.7914 34.54V38.38C86.7914 38.9133 86.8647 39.28 87.0114 39.48C87.1714 39.6667 87.4581 39.76 87.8714 39.76ZM98.1988 38.7C98.2388 38.7 98.2721 38.7333 98.2988 38.8C98.3388 38.8667 98.3388 38.9067 98.2988 38.92L95.5388 40.26C95.5121 40.2733 95.4788 40.28 95.4388 40.28C95.3054 40.28 95.1854 40.14 95.0788 39.86C94.9854 39.5667 94.9321 39.1733 94.9188 38.68C94.0388 39.72 93.0854 40.24 92.0588 40.24C91.3254 40.24 90.7454 40.0133 90.3188 39.56C89.9054 39.0933 89.6988 38.4867 89.6988 37.74V34.8C89.6988 33.9333 89.4921 33.5 89.0788 33.5C88.9321 33.5 88.7654 33.5467 88.5788 33.64H88.5588C88.5054 33.64 88.4654 33.6067 88.4388 33.54C88.4121 33.46 88.4188 33.4133 88.4588 33.4L91.1388 32.12L91.2388 32.1C91.3054 32.1 91.3721 32.1333 91.4388 32.2C91.5188 32.2533 91.5588 32.3067 91.5588 32.36V36.78C91.5588 38.22 92.1121 38.94 93.2188 38.94C93.5121 38.94 93.8054 38.88 94.0987 38.76C94.4054 38.6267 94.6788 38.4467 94.9188 38.22V34.8C94.9188 33.9333 94.7121 33.5 94.2988 33.5C94.1521 33.5 93.9788 33.5467 93.7788 33.64H93.7588C93.7188 33.64 93.6854 33.6067 93.6588 33.54C93.6321 33.46 93.6388 33.4133 93.6788 33.4L96.3588 32.12C96.3854 32.1067 96.4188 32.1 96.4588 32.1C96.5254 32.1 96.5921 32.1333 96.6588 32.2C96.7388 32.2533 96.7788 32.3067 96.7788 32.36V37.68C96.7788 38.1333 96.8188 38.4533 96.8988 38.64C96.9921 38.8267 97.1388 38.92 97.3388 38.92C97.5254 38.92 97.7988 38.8467 98.1588 38.7H98.1988ZM113.496 39.76C113.55 39.76 113.576 39.8 113.576 39.88C113.576 39.96 113.55 40 113.496 40C113.15 40 112.876 39.9933 112.676 39.98L111.476 39.96L110.316 39.98C110.103 39.9933 109.823 40 109.476 40C109.436 40 109.416 39.96 109.416 39.88C109.416 39.8 109.436 39.76 109.476 39.76C109.89 39.76 110.17 39.6667 110.316 39.48C110.476 39.28 110.556 38.9133 110.556 38.38V35.5C110.556 34.78 110.43 34.2467 110.176 33.9C109.936 33.5533 109.563 33.38 109.056 33.38C108.71 33.38 108.37 33.4533 108.036 33.6C107.703 33.7467 107.416 33.9467 107.176 34.2V34.32V38.38C107.176 38.9133 107.25 39.28 107.396 39.48C107.556 39.6667 107.843 39.76 108.256 39.76C108.31 39.76 108.336 39.8 108.336 39.88C108.336 39.96 108.31 40 108.256 40C107.91 40 107.636 39.9933 107.436 39.98L106.236 39.96L105.076 39.98C104.863 39.9933 104.583 40 104.236 40C104.196 40 104.176 39.96 104.176 39.88C104.176 39.8 104.196 39.76 104.236 39.76C104.65 39.76 104.93 39.6667 105.076 39.48C105.236 39.28 105.316 38.9133 105.316 38.38V35.5C105.316 34.78 105.19 34.2467 104.936 33.9C104.696 33.5533 104.323 33.38 103.816 33.38C103.496 33.38 103.176 33.4467 102.856 33.58C102.55 33.7 102.276 33.8733 102.036 34.1V38.38C102.036 38.9133 102.11 39.28 102.256 39.48C102.416 39.6667 102.703 39.76 103.116 39.76C103.156 39.76 103.176 39.8 103.176 39.88C103.176 39.96 103.156 40 103.116 40C102.77 40 102.496 39.9933 102.296 39.98L101.096 39.96L99.9164 39.98C99.7164 39.9933 99.4431 40 99.0964 40C99.0564 40 99.0364 39.96 99.0364 39.88C99.0364 39.8 99.0564 39.76 99.0964 39.76C99.5097 39.76 99.7897 39.6667 99.9364 39.48C100.083 39.28 100.156 38.9133 100.156 38.38V34.62C100.156 34.2067 100.103 33.9067 99.9964 33.72C99.9031 33.52 99.7497 33.42 99.5364 33.42C99.3097 33.42 98.9897 33.5133 98.5764 33.7H98.5364C98.4964 33.7 98.4631 33.6667 98.4364 33.6C98.4231 33.5333 98.4297 33.4933 98.4564 33.48L101.236 32.12C101.316 32.0933 101.363 32.08 101.376 32.08C101.523 32.08 101.663 32.2267 101.796 32.52C101.93 32.8 102.01 33.18 102.036 33.66C102.943 32.58 103.916 32.04 104.956 32.04C105.583 32.04 106.083 32.1933 106.456 32.5C106.83 32.8067 107.056 33.2467 107.136 33.82C108.056 32.6333 109.076 32.04 110.196 32.04C110.916 32.04 111.463 32.2467 111.836 32.66C112.223 33.0733 112.416 33.7 112.416 34.54V38.38C112.416 38.9133 112.49 39.28 112.636 39.48C112.796 39.6667 113.083 39.76 113.496 39.76ZM122.243 38.92C122.297 38.92 122.33 38.9533 122.343 39.02C122.37 39.0733 122.357 39.1133 122.303 39.14L120.243 40.12C120.19 40.1467 120.123 40.16 120.043 40.16C119.843 40.16 119.643 40.06 119.443 39.86C119.257 39.66 119.123 39.3867 119.043 39.04L118.123 39.54C117.777 39.7133 117.417 39.86 117.043 39.98C116.67 40.0867 116.337 40.14 116.043 40.14C115.617 40.14 115.277 40.0333 115.023 39.82C114.783 39.5933 114.663 39.2733 114.663 38.86C114.663 38.5533 114.737 38.3067 114.883 38.12C115.043 37.9333 115.263 37.78 115.543 37.66C115.837 37.5267 116.297 37.3533 116.923 37.14L118.963 36.48V34.9C118.963 34.1 118.883 33.5133 118.723 33.14C118.563 32.7533 118.303 32.56 117.943 32.56C117.623 32.56 117.37 32.68 117.183 32.92C116.997 33.16 116.883 33.5533 116.843 34.1C116.763 34.8467 116.37 35.22 115.663 35.22C115.037 35.22 114.723 34.9467 114.723 34.4C114.723 34.04 114.95 33.68 115.403 33.32C115.857 32.96 116.403 32.6667 117.043 32.44C117.683 32.2133 118.243 32.1 118.723 32.1C119.35 32.1 119.857 32.2867 120.243 32.66C120.643 33.0333 120.843 33.58 120.843 34.3V37.84C120.843 38.2267 120.91 38.5267 121.043 38.74C121.19 38.9533 121.39 39.06 121.643 39.06C121.83 39.06 122.023 39.0133 122.223 38.92H122.243ZM118.983 38.72C118.97 38.6267 118.963 38.4867 118.963 38.3V36.82L117.863 37.22C117.503 37.3533 117.243 37.5 117.083 37.66C116.937 37.82 116.863 38.0133 116.863 38.24C116.863 38.52 116.943 38.74 117.103 38.9C117.263 39.06 117.463 39.14 117.703 39.14C117.997 39.14 118.337 39.0467 118.723 38.86L118.983 38.72ZM115.623 30.52C115.57 30.52 115.523 30.4867 115.483 30.42C115.443 30.34 115.423 30.2467 115.423 30.14C115.423 30.0467 115.443 29.9667 115.483 29.9C115.523 29.82 115.57 29.78 115.623 29.78H120.643C120.71 29.78 120.763 29.82 120.803 29.9C120.843 29.9667 120.863 30.0467 120.863 30.14C120.863 30.2467 120.843 30.34 120.803 30.42C120.763 30.4867 120.71 30.52 120.643 30.52H115.623ZM132.461 39.76C132.501 39.76 132.521 39.8 132.521 39.88C132.521 39.96 132.501 40 132.461 40C132.115 40 131.841 39.9933 131.641 39.98L130.441 39.96L129.281 39.98C129.068 39.9933 128.788 40 128.441 40C128.401 40 128.381 39.96 128.381 39.88C128.381 39.8 128.401 39.76 128.441 39.76C128.855 39.76 129.135 39.6667 129.281 39.48C129.428 39.28 129.501 38.9133 129.501 38.38V35.5C129.501 34.78 129.368 34.2467 129.101 33.9C128.848 33.5533 128.441 33.38 127.881 33.38C127.561 33.38 127.228 33.4467 126.881 33.58C126.548 33.7133 126.255 33.8933 126.001 34.12V38.38C126.001 38.9133 126.075 39.28 126.221 39.48C126.381 39.6667 126.668 39.76 127.081 39.76C127.121 39.76 127.141 39.8 127.141 39.88C127.141 39.96 127.121 40 127.081 40C126.735 40 126.461 39.9933 126.261 39.98L125.061 39.96L123.881 39.98C123.681 39.9933 123.408 40 123.061 40C123.021 40 123.001 39.96 123.001 39.88C123.001 39.8 123.021 39.76 123.061 39.76C123.475 39.76 123.755 39.6667 123.901 39.48C124.048 39.28 124.121 38.9133 124.121 38.38V34.62C124.121 34.2067 124.068 33.9067 123.961 33.72C123.868 33.52 123.715 33.42 123.501 33.42C123.275 33.42 122.955 33.5133 122.541 33.7H122.501C122.461 33.7 122.428 33.6667 122.401 33.6C122.388 33.5333 122.395 33.4933 122.421 33.48L125.201 32.12C125.281 32.0933 125.328 32.08 125.341 32.08C125.488 32.08 125.628 32.2267 125.761 32.52C125.895 32.8 125.975 33.1867 126.001 33.68C126.921 32.5867 127.935 32.04 129.041 32.04C129.761 32.04 130.328 32.2733 130.741 32.74C131.168 33.1933 131.381 33.7933 131.381 34.54V38.38C131.381 38.9133 131.455 39.28 131.601 39.48C131.761 39.6667 132.048 39.76 132.461 39.76Z" fill="white"/>
<defs>
<clipPath id="clip0">
<rect width="34.375" height="44" fill="white" transform="translate(6.125)"/>
</clipPath>
</defs>
</svg>
