<svg width="189" height="24" viewBox="0 0 189 24" fill="none" xmlns="http://www.w3.org/2000/svg">
<g clip-path="url(#clip0)">
<path d="M68.0391 0V3.88991C68.0391 3.88991 75.9625 3.88991 76.0352 3.88991C77.6344 6.6055 75.8898 8.14679 75.8898 8.14679C75.8898 8.14679 74.2906 7.85321 73.491 7.85321C73.3456 7.85321 73.2002 7.85321 73.0548 7.85321C72.1825 7.92661 71.5283 8.29358 71.1648 8.95413C70.8014 9.61468 70.8014 10.3486 71.1648 11.156C71.5283 12.0367 72.0371 12.844 72.6914 13.578C74.5087 15.7064 76.6894 17.5413 78.7975 19.4495C80.6148 21.0642 82.7956 23.4128 84.5402 23.4128C85.1945 23.3394 85.776 22.6055 85.9941 21.7248C86.1395 20.6972 85.1218 19.4495 82.7956 18.055L76.7621 14.0917C79.7425 11.156 80.6148 7.85321 79.6698 3.88991H88.9744C88.9744 3.88991 88.9018 17.4679 88.9018 20.6972C88.9018 22.0183 90.2829 24.2202 93.1179 23.9266C93.1906 23.633 93.1906 3.88991 93.1906 3.88991H101.478V10.422C101.332 10.422 100.896 10.3486 99.8783 10.3486C99.1514 10.3486 98.7152 10.6422 98.4244 11.2294C98.1337 11.8899 98.4971 12.7706 98.8606 13.211C100.169 14.7523 101.55 16.2202 103.004 17.6881C103.295 17.9817 103.876 18.2752 104.385 18.2752C104.603 18.2752 104.749 18.2018 104.894 18.1284C105.548 17.7615 105.694 16.8073 105.694 16.5138C105.766 15.8532 105.694 15.1193 105.694 14.4587V14.3853H111.364C111.364 14.4587 111.364 20.2569 111.364 20.2569C111.364 23.1927 115.507 23.5596 115.507 23.5596V3.74312H120.741V0H68.0391ZM111.509 10.3486H105.912V3.88991H111.509V10.3486Z" fill="#FDB14A"/>
<path d="M143.785 19.8899C141.168 21.3578 138.406 20.6238 136.952 17.9082C136.589 17.1743 136.516 16.2201 136.516 15.3394C136.516 14.8256 136.516 14.5321 136.153 14.0917C135.644 13.4311 135.135 12.6972 134.989 11.8899C134.408 9.17427 136.371 6.45867 138.988 6.16509C139.206 6.16509 139.496 5.94491 139.569 5.72473C140.151 4.18344 141.314 3.52289 142.84 3.30271C145.239 2.93574 146.838 3.66968 148.001 5.79812C148.074 6.0183 148.365 6.16509 148.583 6.16509C150.764 6.23849 151.781 7.63298 152.363 9.54124C152.944 11.3027 152.944 13.0642 151.273 14.3853C151.127 14.5321 150.982 14.8256 151.054 15.0458C151.636 17.1743 150.691 18.6422 148.946 19.8165C146.984 21.0642 145.893 21.1376 143.785 19.8899ZM141.532 9.90821C140.441 7.70638 138.697 6.67885 137.388 7.4128C135.862 8.22014 134.989 11.0825 135.789 12.5504C136.516 13.8715 138.406 14.0917 140.514 12.9908C139.787 12.1834 139.133 11.3761 138.479 10.5688C139.569 10.2752 140.514 10.1284 141.532 9.90821ZM149.164 10.5688C148.437 11.3761 147.711 12.11 146.984 12.9174C148.946 14.0917 150.982 13.8715 151.709 12.6238C152.508 11.1559 151.636 8.29353 150.109 7.48619C148.728 6.75225 147.056 7.70638 145.966 9.98161C147.056 10.1284 148.074 10.3486 149.164 10.5688ZM143.785 6.60546C144.367 7.70638 144.876 8.58711 145.384 9.46785C147.129 7.70638 147.492 5.79812 146.402 4.6972C145.166 3.4495 142.259 3.52289 141.096 4.7706C140.078 5.87152 140.514 7.85317 142.186 9.32106C142.477 8.88069 142.84 8.51372 143.058 8.07335C143.349 7.70638 143.494 7.19262 143.785 6.60546ZM144.149 15.5596C143.858 18.1284 144.658 19.8899 146.111 20.0367C147.929 20.2568 150.182 18.4954 150.4 16.8807C150.546 15.4128 149.092 14.0183 146.766 13.7981C146.911 14.899 146.984 15.9266 147.129 16.9541C146.111 16.4403 145.166 16 144.149 15.5596ZM143.349 15.5596C142.331 16 141.386 16.4403 140.296 16.8807C140.441 16.2201 140.659 15.7064 140.659 15.1926C140.732 14.6789 140.659 14.1651 140.659 13.6513C138.261 14.0183 136.879 15.4128 137.098 16.8807C137.388 18.5688 139.86 20.2568 141.459 19.9633C142.913 19.7431 143.785 17.9082 143.349 15.5596Z" fill="#FDB14A"/>
<path d="M180.133 19.8899C177.516 21.3577 174.754 20.6238 173.3 17.9082C172.936 17.1743 172.864 16.2201 172.864 15.3394C172.864 14.8256 172.864 14.5321 172.5 14.0917C171.991 13.4311 171.482 12.6972 171.337 11.8899C170.756 9.17426 172.718 6.45866 175.335 6.16509C175.553 6.16509 175.844 5.9449 175.917 5.72472C176.498 4.18343 177.661 3.52288 179.188 3.3027C181.587 2.93573 183.186 3.66967 184.349 5.79811C184.422 6.0183 184.712 6.16509 184.931 6.16509C187.111 6.23848 188.129 7.63298 188.711 9.54123C189.292 11.3027 189.292 13.0642 187.62 14.3853C187.475 14.5321 187.329 14.8256 187.402 15.0458C187.984 17.1743 187.039 18.6422 185.294 19.8165C183.331 21.0642 182.241 21.1376 180.133 19.8899ZM177.879 9.90821C176.789 7.70637 175.044 6.67885 173.736 7.41279C172.209 8.22013 171.337 11.0825 172.137 12.5504C172.864 13.8715 174.754 14.0917 176.862 12.9908C176.135 12.1834 175.481 11.3761 174.826 10.5688C175.917 10.2752 176.862 10.1284 177.879 9.90821ZM185.512 10.5688C184.785 11.3761 184.058 12.11 183.331 12.9174C185.294 14.0917 187.329 13.8715 188.056 12.6238C188.856 11.1559 187.984 8.29353 186.457 7.48619C185.076 6.75224 183.404 7.70637 182.314 9.9816C183.404 10.1284 184.422 10.3486 185.512 10.5688ZM180.133 6.60545C180.714 7.70637 181.223 8.5871 181.732 9.46784C183.477 7.70637 183.84 5.79811 182.75 4.6972C181.514 3.44949 178.606 3.52288 177.443 4.77059C176.426 5.87151 176.862 7.85316 178.534 9.32105C178.824 8.88068 179.188 8.51371 179.406 8.07334C179.697 7.70637 179.842 7.19261 180.133 6.60545ZM180.496 15.5596C180.206 18.1284 181.005 19.8899 182.459 20.0366C184.276 20.2568 186.53 18.4954 186.748 16.8807C186.893 15.4128 185.439 14.0183 183.113 13.7981C183.259 14.899 183.331 15.9266 183.477 16.9541C182.459 16.4403 181.514 15.9999 180.496 15.5596ZM179.697 15.5596C178.679 15.9999 177.734 16.4403 176.644 16.8807C176.789 16.2201 177.007 15.7064 177.007 15.1926C177.08 14.6788 177.007 14.1651 177.007 13.6513C174.608 14.0183 173.227 15.4128 173.445 16.8807C173.736 18.5688 176.207 20.2568 177.807 19.9633C179.261 19.7431 180.133 17.9082 179.697 15.5596Z" fill="#FDB14A"/>
<path d="M45.2149 19.8899C42.598 21.3577 39.8357 20.6238 38.3818 17.9082C38.0183 17.1743 37.9457 16.2201 37.9457 15.3394C37.9457 14.8256 37.9457 14.5321 37.5822 14.0917C37.0733 13.4311 36.5645 12.6972 36.4191 11.8899C35.8376 9.17426 37.8003 6.45866 40.4172 6.16509C40.6353 6.16509 40.926 5.9449 40.9987 5.72472C41.5803 4.18343 42.7433 3.52288 44.2699 3.3027C46.7414 2.93573 48.3406 3.66967 49.5037 5.79811C49.5764 6.0183 49.8672 6.16509 50.0853 6.16509C52.266 6.23848 53.2837 7.63298 53.8653 9.54123C54.4468 11.3027 54.4468 13.0642 52.7749 14.3853C52.6295 14.5321 52.4841 14.8256 52.5568 15.0458C53.1383 17.1743 52.1933 18.6422 50.4487 19.8165C48.4133 21.0642 47.323 21.1376 45.2149 19.8899ZM43.0341 9.90821C41.9437 7.70637 40.1991 6.67885 38.8907 7.41279C37.3641 8.22013 36.4918 11.0825 37.2914 12.5504C38.0183 13.8715 39.9083 14.0917 42.0164 12.9908C41.2895 12.1834 40.6353 11.3761 39.981 10.5688C41.0714 10.2752 42.0164 10.1284 43.0341 9.90821ZM50.5941 10.5688C49.8672 11.3761 49.1403 12.11 48.4133 12.9174C50.376 14.0917 52.4114 13.8715 53.1383 12.6238C53.938 11.1559 53.0656 8.29353 51.5391 7.48619C50.158 6.75224 48.486 7.70637 47.3956 9.9816C48.5587 10.1284 49.5037 10.3486 50.5941 10.5688ZM45.2149 6.60545C45.7964 7.70637 46.3053 8.5871 46.8141 9.46784C48.5587 7.70637 48.9222 5.79811 47.8318 4.6972C46.596 3.44949 43.6883 3.52288 42.5253 4.77059C41.5076 5.87151 41.9437 7.85316 43.6157 9.32105C43.9064 8.88068 44.2699 8.51371 44.488 8.07334C44.7787 7.70637 44.9241 7.19261 45.2149 6.60545ZM45.5783 15.5596C45.2876 18.1284 46.0872 19.8899 47.541 20.0366C49.3583 20.2568 51.6118 18.4954 51.8299 16.8807C51.9753 15.4128 50.5214 14.0183 48.1953 13.7981C48.3407 14.899 48.4133 15.9266 48.5587 16.9541C47.541 16.4403 46.6687 15.9999 45.5783 15.5596ZM44.8514 15.5596C43.8337 15.9999 42.8887 16.4403 41.7983 16.8807C41.9437 16.2201 42.1618 15.7064 42.1618 15.1926C42.2345 14.6788 42.1618 14.1651 42.1618 13.6513C39.763 14.0183 38.3818 15.4128 38.5999 16.8807C38.8907 18.5688 41.3622 20.2568 42.9614 19.9633C44.4153 19.7431 45.2149 17.9082 44.8514 15.5596Z" fill="#FDB14A"/>
<path d="M8.86712 19.8898C6.25019 21.3577 3.48789 20.6237 2.03404 17.9082C1.67058 17.1742 1.59789 16.2201 1.59789 15.3393C1.59789 14.8256 1.59789 14.532 1.23443 14.0916C0.725579 13.4311 0.216733 12.6971 0.0713483 11.8898C-0.437498 9.17421 1.4525 6.532 4.06943 6.16503C4.2875 6.16503 4.57827 5.94485 4.65096 5.72467C5.2325 4.18338 6.39558 3.52283 7.92212 3.30265C10.3937 2.93567 11.9929 3.66962 13.156 5.79806C13.2287 6.01824 13.5194 6.16503 13.7375 6.16503C15.9183 6.23843 16.936 7.63292 17.5175 9.54118C18.099 11.3026 18.099 13.0641 16.4271 14.3852C16.2817 14.532 16.1363 14.8256 16.209 15.0458C16.7906 17.1742 15.8456 18.6421 14.101 19.8164C12.0656 21.0641 10.9752 21.1375 8.86712 19.8898ZM6.68635 9.90815C5.59596 7.70632 3.85135 6.67879 2.54289 7.41274C1.01635 8.22008 0.144041 11.0825 0.943656 12.5504C1.67058 13.8715 3.56058 14.0916 5.66866 12.9907C4.94173 12.1834 4.2875 11.376 3.63327 10.5687C4.72366 10.2751 5.66866 10.1283 6.68635 9.90815ZM14.2463 10.5687C13.5194 11.376 12.7925 12.11 12.0656 12.9173C14.0283 14.0916 16.0637 13.8715 16.7906 12.6237C17.5902 11.1559 16.7179 8.29347 15.1913 7.48613C13.8102 6.75219 12.1383 7.70632 11.0479 9.98155C12.211 10.1283 13.156 10.3485 14.2463 10.5687ZM8.86712 6.6054C9.44866 7.70632 9.9575 8.58705 10.4663 9.46778C12.211 7.70632 12.5744 5.79806 11.484 4.69714C10.2483 3.44944 7.34058 3.52283 6.1775 4.77054C5.2325 5.87145 5.66866 7.9265 7.26789 9.39439C7.55866 8.95402 7.92212 8.58705 8.14019 8.14668C8.43096 7.70632 8.57635 7.19255 8.86712 6.6054ZM9.23058 15.5595C8.93981 18.1283 9.73942 19.8898 11.1933 20.0366C13.0106 20.2568 15.264 18.4953 15.4821 16.8806C15.6275 15.4127 14.1737 14.0182 11.8475 13.7981C11.9929 14.899 12.0656 15.9265 12.211 16.954C11.1933 16.4403 10.321 15.9999 9.23058 15.5595ZM8.50366 15.5595C7.48596 15.9999 6.54096 16.4403 5.45058 16.8806C5.59596 16.2201 5.81404 15.7063 5.81404 15.1926C5.88673 14.6788 5.81404 14.165 5.81404 13.6513C3.41519 14.0182 2.03404 15.4127 2.25212 16.8806C2.54289 18.5687 5.01442 20.2568 6.61366 19.9632C8.0675 19.743 8.86712 17.9082 8.50366 15.5595Z" fill="#FDB14A"/>
</g>
<defs>
<clipPath id="clip0">
<rect width="189" height="24" fill="white"/>
</clipPath>
</defs>
</svg>
