<svg width="16" height="11" viewBox="0 0 16 11" fill="none" xmlns="http://www.w3.org/2000/svg">
<path d="M14.9 5.39995C13.4 7.79995 10.9 9.39995 8 9.39995C5.1 9.39995 2.7 7.79995 1.1 5.39995C2 3.99995 3.2 2.89995 4.5 2.19995C4.2 2.79995 4 3.49995 4 4.19995C4 6.39995 5.8 8.19995 8 8.19995C10.2 8.19995 12 6.39995 12 4.19995C12 3.49995 11.8 2.79995 11.5 2.19995C12.8 2.89995 14 3.99995 14.9 5.39995ZM8.4 1.89995C8.4 2.09995 8.2 2.29995 8 2.29995C7 2.29995 6.1 3.09995 6.1 4.19995C6.1 4.39995 5.9 4.59995 5.7 4.59995C5.5 4.59995 5.3 4.39995 5.3 4.19995C5.3 2.69995 6.5 1.49995 8 1.49995C8.2 1.49995 8.4 1.69995 8.4 1.89995ZM16 5.39995C16 5.19995 15.9 4.99995 15.8 4.79995C14.2 1.99995 11.2 0.199951 8 0.199951C4.8 0.199951 1.8 1.99995 0.2 4.69995C0.1 4.89995 0 5.09995 0 5.39995C0 5.59995 0.1 5.79995 0.2 5.99995C1.8 8.69995 4.9 10.5 8 10.5C11.2 10.5 14.2 8.69995 15.8 5.99995C15.9 5.79995 16 5.59995 16 5.39995Z" fill="#FDB14A"/>
</svg>
