<svg width="16" height="15" viewBox="0 0 16 15" fill="none" xmlns="http://www.w3.org/2000/svg">
<path d="M15.1984 4.10002C15.0984 3.90002 14.8984 3.80002 14.6984 3.70002C14.6984 3.90002 14.6984 4.00002 14.6984 4.20002L11.9984 13C11.8984 13.3 11.4984 13.5 11.1984 13.5H2.89844C2.39844 13.5 1.79844 13.4 1.59844 12.9C1.49844 12.7 1.49844 12.6 1.59844 12.5C1.69844 12.4 1.79844 12.4 1.89844 12.4H9.69844C10.7984 12.4 11.0984 12.1 11.4984 10.7L13.9984 2.60002C14.0984 2.20002 14.0984 1.80002 13.7984 1.40002C13.5984 1.10002 13.1984 0.900024 12.7984 0.900024H5.99844C5.79844 0.900024 5.69844 1.00002 5.49844 1.00002C4.39844 0.700024 4.29844 1.90002 3.99844 2.40002C3.79844 2.60002 3.59844 2.80002 3.59844 3.00002C3.59844 3.20002 3.69844 3.30002 3.59844 3.50002C3.59844 3.90002 3.19844 4.80002 2.99844 5.10002C2.79844 5.20002 2.69844 5.30002 2.59844 5.50002C2.49844 5.60002 2.59844 5.80002 2.59844 6.00002C2.59844 6.40002 2.19844 7.20002 1.99844 7.60002C1.89844 7.90002 1.69844 8.00002 1.69844 8.20002C1.69844 8.40002 1.69844 8.50002 1.69844 8.70002C1.59844 9.10002 1.29844 9.90003 0.998437 10.3C0.898437 10.5 0.698438 10.7 0.598438 10.9C0.598438 11 0.698437 11.1 0.698437 11.3C0.698437 11.5 0.698438 11.7 0.598438 11.9C0.498438 12.2 0.498438 12.6 0.598438 13C0.998438 13.9 1.99844 14.6 2.89844 14.6H11.0984C11.8984 14.6 12.6984 14 12.8984 13.3L15.3984 5.20002C15.4984 4.80002 15.3984 4.40002 15.1984 4.10002ZM5.69844 4.10002L5.89844 3.50002C5.99844 3.30002 6.09844 3.20002 6.29844 3.20002H11.6984C11.8984 3.20002 11.8984 3.30002 11.8984 3.50002L11.6984 4.10002C11.5984 4.30002 11.4984 4.40002 11.2984 4.40002H5.89844C5.69844 4.40002 5.69844 4.20002 5.69844 4.10002ZM4.99844 6.40002L5.19844 5.80002C5.29844 5.60002 5.39844 5.50002 5.59844 5.50002H10.9984C11.1984 5.50002 11.1984 5.60002 11.1984 5.80002L10.9984 6.40002C10.8984 6.60002 10.7984 6.70002 10.5984 6.70002H5.19844C4.99844 6.60002 4.89844 6.50002 4.99844 6.40002Z" fill="#FDB14A"/>
</svg>
