<svg width="52" height="24" viewBox="0 0 52 24" fill="none" xmlns="http://www.w3.org/2000/svg">
<path d="M0.347656 -0.51178V3.37813C0.347656 3.37813 8.07207 3.37813 8.14293 3.37813C9.70199 6.09373 8.0012 7.63501 8.0012 7.63501C8.0012 7.63501 6.44215 7.34143 5.66262 7.34143C5.52088 7.34143 5.37915 7.34143 5.23742 7.34143C4.38703 7.41483 3.74923 7.7818 3.3949 8.44235C3.04057 9.1029 3.04057 9.83684 3.3949 10.6442C3.74923 11.5249 4.2453 12.3323 4.88309 13.0662C6.65474 15.1946 8.78073 17.0295 10.8358 18.9378C12.6075 20.5524 14.7335 22.9011 16.4343 22.9011C17.0721 22.8277 17.639 22.0937 17.8516 21.213C17.9933 20.1855 17.0012 18.9378 14.7335 17.5433L8.85159 13.58C11.7571 10.6442 12.6075 7.34143 11.6862 3.37813H20.7571C20.7571 3.37813 20.6862 16.9561 20.6862 20.1855C20.6862 21.5066 22.0327 23.7084 24.7965 23.4148C24.8673 23.1212 24.8673 3.37813 24.8673 3.37813H32.9461V9.91024C32.8044 9.91024 32.3792 9.83685 31.387 9.83685C30.6784 9.83685 30.2532 10.1304 29.9697 10.7176C29.6862 11.3781 30.0406 12.2589 30.3949 12.6992C31.6705 14.2405 33.0169 15.7084 34.4343 17.1763C34.7177 17.4699 35.2847 17.7635 35.7807 17.7635C35.9933 17.7635 36.1351 17.6901 36.2768 17.6167C36.9146 17.2497 37.0563 16.2956 37.0563 16.002C37.1272 15.3414 37.0563 14.6075 37.0563 13.9469V13.8735H42.5839C42.5839 13.9469 42.5839 19.7451 42.5839 19.7451C42.5839 22.6809 46.6233 23.0479 46.6233 23.0479V3.23134H51.7256V-0.51178H0.347656ZM42.7256 9.83685H37.2689V3.37813H42.7256V9.83685Z" fill="#FDB14A"/>
</svg>
