<svg width="126" height="16" viewBox="0 0 126 16" fill="none" xmlns="http://www.w3.org/2000/svg">
<g clip-path="url(#clip0)">
<path d="M45.3594 0V2.59327C45.3594 2.59327 50.6417 2.59327 50.6901 2.59327C51.7563 4.40367 50.5932 5.43119 50.5932 5.43119C50.5932 5.43119 49.5271 5.23547 48.994 5.23547C48.8971 5.23547 48.8001 5.23547 48.7032 5.23547C48.1217 5.2844 47.6855 5.52905 47.4432 5.96942C47.2009 6.40979 47.2009 6.89908 47.4432 7.43731C47.6855 8.02446 48.0248 8.56269 48.4609 9.05199C49.6725 10.4709 51.1263 11.6942 52.5317 12.9664C53.7432 14.0428 55.1971 15.6086 56.3601 15.6086C56.7963 15.5596 57.184 15.0703 57.3294 14.4832C57.4263 13.7982 56.7478 12.9664 55.1971 12.0367L51.1748 9.3945C53.1617 7.43731 53.7432 5.23547 53.1132 2.59327H59.3163C59.3163 2.59327 59.2678 11.6453 59.2678 13.7982C59.2678 14.6789 60.1886 16.1468 62.0786 15.9511C62.1271 15.7554 62.1271 2.59327 62.1271 2.59327H67.6517V6.94801C67.5548 6.94801 67.264 6.89908 66.5855 6.89908C66.1009 6.89908 65.8101 7.0948 65.6163 7.48624C65.4225 7.92661 65.6648 8.51376 65.9071 8.80734C66.7794 9.83486 67.7001 10.8135 68.6694 11.792C68.8632 11.9878 69.2509 12.1835 69.5901 12.1835C69.7355 12.1835 69.8325 12.1346 69.9294 12.0856C70.3655 11.841 70.4625 11.2049 70.4625 11.0092C70.5109 10.5688 70.4625 10.0795 70.4625 9.63914V9.59021H74.2425C74.2425 9.63914 74.2425 13.5046 74.2425 13.5046C74.2425 15.4618 77.0048 15.7064 77.0048 15.7064V2.49541H80.494V0H45.3594ZM74.3394 6.89908H70.6078V2.59327H74.3394V6.89908Z" fill="#FDB14A"/>
<path d="M95.8581 13.26C94.1135 14.2386 92.2719 13.7493 91.3027 11.9389C91.0604 11.4496 91.0119 10.8135 91.0119 10.2264C91.0119 9.88384 91.0119 9.68813 90.7696 9.39455C90.4304 8.95418 90.0912 8.46488 89.9943 7.92666C89.6066 6.11626 90.915 4.30586 92.6596 4.11014C92.805 4.11014 92.9989 3.96335 93.0473 3.81657C93.435 2.78904 94.2104 2.34868 95.2281 2.20189C96.8273 1.95724 97.8935 2.44653 98.6689 3.8655C98.7173 4.01228 98.9112 4.11014 99.0566 4.11014C100.51 4.15907 101.189 5.08874 101.577 6.36091C101.964 7.53522 101.964 8.70953 100.85 9.59027C100.753 9.68813 100.656 9.88384 100.704 10.0306C101.092 11.4496 100.462 12.4282 99.2989 13.2111C97.9904 14.0429 97.2635 14.0918 95.8581 13.26ZM94.3558 6.60556C93.6289 5.13767 92.4658 4.45265 91.5935 4.94195C90.5758 5.48017 89.9943 7.38843 90.5273 8.36702C91.0119 9.24776 92.2719 9.39455 93.6773 8.6606C93.1927 8.12238 92.7566 7.58415 92.3204 7.04592C93.0473 6.8502 93.6773 6.75235 94.3558 6.60556ZM99.4443 7.04592C98.9596 7.58415 98.475 8.07345 97.9904 8.61167C99.2989 9.39455 100.656 9.24776 101.14 8.41595C101.673 7.43736 101.092 5.5291 100.074 4.99088C99.1535 4.50158 98.0389 5.13767 97.3119 6.65449C98.0389 6.75235 98.7173 6.89913 99.4443 7.04592ZM95.8581 4.40372C96.2458 5.13767 96.585 5.72482 96.9243 6.31198C98.0873 5.13767 98.3296 3.8655 97.6027 3.13155C96.7789 2.29975 94.8404 2.34868 94.065 3.18048C93.3866 3.91442 93.6773 5.23553 94.792 6.21412C94.9858 5.92054 95.2281 5.67589 95.3735 5.38231C95.5673 5.13767 95.6643 4.79516 95.8581 4.40372ZM96.1004 10.3731C95.9066 12.0857 96.4396 13.26 97.4089 13.3578C98.6204 13.5046 100.123 12.3303 100.268 11.2539C100.365 10.2753 99.3958 9.34562 97.845 9.19883C97.9419 9.93277 97.9904 10.6178 98.0873 11.3028C97.4089 10.9603 96.7789 10.6667 96.1004 10.3731ZM95.5673 10.3731C94.8889 10.6667 94.2589 10.9603 93.5319 11.2539C93.6289 10.8135 93.7743 10.471 93.7743 10.1285C93.8227 9.78598 93.7743 9.44348 93.7743 9.10097C92.175 9.34562 91.2543 10.2753 91.3996 11.2539C91.5935 12.3793 93.2412 13.5046 94.3073 13.3089C95.2766 13.1621 95.8581 11.9389 95.5673 10.3731Z" fill="#FDB14A"/>
<path d="M120.089 13.26C118.344 14.2386 116.502 13.7493 115.533 11.9389C115.291 11.4496 115.242 10.8135 115.242 10.2264C115.242 9.88384 115.242 9.68813 115 9.39455C114.661 8.95418 114.322 8.46488 114.225 7.92666C113.837 6.11626 115.145 4.30586 116.89 4.11014C117.035 4.11014 117.229 3.96335 117.278 3.81657C117.665 2.78904 118.441 2.34868 119.459 2.20189C121.058 1.95724 122.124 2.44653 122.899 3.8655C122.948 4.01228 123.142 4.11014 123.287 4.11014C124.741 4.15907 125.419 5.08874 125.807 6.36091C126.195 7.53522 126.195 8.70953 125.08 9.59027C124.983 9.68813 124.886 9.88384 124.935 10.0306C125.322 11.4496 124.692 12.4282 123.529 13.2111C122.221 14.0429 121.494 14.0918 120.089 13.26ZM118.586 6.60556C117.859 5.13767 116.696 4.45265 115.824 4.94195C114.806 5.48017 114.225 7.38843 114.758 8.36702C115.242 9.24776 116.502 9.39455 117.908 8.6606C117.423 8.12238 116.987 7.58415 116.551 7.04592C117.278 6.8502 117.908 6.75235 118.586 6.60556ZM123.675 7.04592C123.19 7.58415 122.705 8.07345 122.221 8.61167C123.529 9.39455 124.886 9.24776 125.371 8.41595C125.904 7.43736 125.322 5.5291 124.305 4.99088C123.384 4.50158 122.269 5.13767 121.542 6.65449C122.269 6.75235 122.948 6.89913 123.675 7.04592ZM120.089 4.40372C120.476 5.13767 120.815 5.72482 121.155 6.31198C122.318 5.13767 122.56 3.8655 121.833 3.13155C121.009 2.29975 119.071 2.34868 118.295 3.18048C117.617 3.91442 117.908 5.23553 119.022 6.21412C119.216 5.92054 119.459 5.67589 119.604 5.38231C119.798 5.13767 119.895 4.79516 120.089 4.40372ZM120.331 10.3731C120.137 12.0857 120.67 13.26 121.639 13.3578C122.851 13.5046 124.353 12.3303 124.499 11.2539C124.595 10.2753 123.626 9.34562 122.075 9.19883C122.172 9.93277 122.221 10.6178 122.318 11.3028C121.639 10.9603 121.009 10.6667 120.331 10.3731ZM119.798 10.3731C119.119 10.6667 118.489 10.9603 117.762 11.2539C117.859 10.8135 118.005 10.471 118.005 10.1285C118.053 9.78598 118.005 9.44348 118.005 9.10097C116.405 9.34562 115.485 10.2753 115.63 11.2539C115.824 12.3793 117.472 13.5046 118.538 13.3089C119.507 13.1621 120.089 11.9389 119.798 10.3731Z" fill="#FDB14A"/>
<path d="M30.1433 13.26C28.3986 14.2386 26.5571 13.7493 25.5879 11.9389C25.3456 11.4496 25.2971 10.8135 25.2971 10.2264C25.2971 9.88384 25.2971 9.68813 25.0548 9.39455C24.7156 8.95418 24.3763 8.46488 24.2794 7.92666C23.8917 6.11626 25.2002 4.30586 26.9448 4.11014C27.0902 4.11014 27.284 3.96335 27.3325 3.81657C27.7202 2.78904 28.4956 2.34868 29.5133 2.20189C31.1609 1.95724 32.2271 2.44653 33.0025 3.8655C33.0509 4.01228 33.2448 4.11014 33.3902 4.11014C34.844 4.15907 35.5225 5.08874 35.9102 6.36091C36.2979 7.53522 36.2979 8.70953 35.1833 9.59027C35.0863 9.68813 34.9894 9.88384 35.0379 10.0306C35.4256 11.4496 34.7956 12.4282 33.6325 13.2111C32.2756 14.0429 31.5486 14.0918 30.1433 13.26ZM28.6894 6.60556C27.9625 5.13767 26.7994 4.45265 25.9271 4.94195C24.9094 5.48017 24.3279 7.38843 24.8609 8.36702C25.3456 9.24776 26.6056 9.39455 28.0109 8.6606C27.5263 8.12238 27.0902 7.58415 26.654 7.04592C27.3809 6.8502 28.0109 6.75235 28.6894 6.60556ZM33.7294 7.04592C33.2448 7.58415 32.7602 8.07345 32.2756 8.61167C33.584 9.39455 34.9409 9.24776 35.4256 8.41595C35.9586 7.43736 35.3771 5.5291 34.3594 4.99088C33.4386 4.50158 32.324 5.13767 31.5971 6.65449C32.3725 6.75235 33.0025 6.89913 33.7294 7.04592ZM30.1433 4.40372C30.5309 5.13767 30.8702 5.72482 31.2094 6.31198C32.3725 5.13767 32.6148 3.8655 31.8879 3.13155C31.064 2.29975 29.1256 2.34868 28.3502 3.18048C27.6717 3.91442 27.9625 5.23553 29.0771 6.21412C29.2709 5.92054 29.5133 5.67589 29.6586 5.38231C29.8525 5.13767 29.9494 4.79516 30.1433 4.40372ZM30.3856 10.3731C30.1917 12.0857 30.7248 13.26 31.694 13.3578C32.9056 13.5046 34.4079 12.3303 34.5533 11.2539C34.6502 10.2753 33.6809 9.34562 32.1302 9.19883C32.2271 9.93277 32.2756 10.6178 32.3725 11.3028C31.694 10.9603 31.1125 10.6667 30.3856 10.3731ZM29.9009 10.3731C29.2225 10.6667 28.5925 10.9603 27.8656 11.2539C27.9625 10.8135 28.1079 10.471 28.1079 10.1285C28.1563 9.78598 28.1079 9.44348 28.1079 9.10097C26.5086 9.34562 25.5879 10.2753 25.7333 11.2539C25.9271 12.3793 27.5748 13.5046 28.6409 13.3089C29.6102 13.1621 30.1433 11.9389 29.9009 10.3731Z" fill="#FDB14A"/>
<path d="M5.91141 13.26C4.1668 14.2386 2.32526 13.7493 1.35603 11.9389C1.11372 11.4496 1.06526 10.8135 1.06526 10.2264C1.06526 9.88384 1.06526 9.68813 0.82295 9.39455C0.483719 8.95418 0.144489 8.46488 0.0475655 7.92666C-0.291665 6.11626 0.968335 4.35479 2.71295 4.11014C2.85833 4.11014 3.05218 3.96335 3.10064 3.81657C3.48833 2.78904 4.26372 2.34868 5.28141 2.20189C6.9291 1.95724 7.99526 2.44653 8.77064 3.8655C8.8191 4.01228 9.01295 4.11014 9.15833 4.11014C10.6122 4.15907 11.2906 5.08874 11.6783 6.36091C12.066 7.53522 12.066 8.70953 10.9514 9.59027C10.8545 9.68813 10.7576 9.88384 10.806 10.0306C11.1937 11.4496 10.5637 12.4282 9.40064 13.2111C8.04372 14.0429 7.3168 14.0918 5.91141 13.26ZM4.45756 6.60556C3.73064 5.13767 2.56757 4.45265 1.69526 4.94195C0.677566 5.48017 0.096027 7.38843 0.629104 8.36702C1.11372 9.24776 2.37372 9.39455 3.7791 8.6606C3.29449 8.12238 2.85833 7.58415 2.42218 7.04592C3.1491 6.8502 3.7791 6.75235 4.45756 6.60556ZM9.49757 7.04592C9.01295 7.58415 8.52833 8.07345 8.04372 8.61167C9.35218 9.39455 10.7091 9.24776 11.1937 8.41595C11.7268 7.43736 11.1453 5.5291 10.1276 4.99088C9.2068 4.50158 8.09218 5.13767 7.36526 6.65449C8.14064 6.75235 8.77064 6.89913 9.49757 7.04592ZM5.91141 4.40372C6.2991 5.13767 6.63833 5.72482 6.97756 6.31198C8.14064 5.13767 8.38295 3.8655 7.65603 3.13155C6.83218 2.29975 4.89372 2.34868 4.11833 3.18048C3.48833 3.91442 3.7791 5.28446 4.84526 6.26305C5.0391 5.96947 5.28141 5.72482 5.4268 5.43124C5.62064 5.13767 5.71756 4.79516 5.91141 4.40372ZM6.15372 10.3731C5.95987 12.0857 6.49295 13.26 7.46218 13.3578C8.67372 13.5046 10.176 12.3303 10.3214 11.2539C10.4183 10.2753 9.4491 9.34562 7.89833 9.19883C7.99526 9.93277 8.04372 10.6178 8.14064 11.3028C7.46218 10.9603 6.88064 10.6667 6.15372 10.3731ZM5.6691 10.3731C4.99064 10.6667 4.36064 10.9603 3.63372 11.2539C3.73064 10.8135 3.87603 10.471 3.87603 10.1285C3.92449 9.78598 3.87603 9.44348 3.87603 9.10097C2.2768 9.34562 1.35603 10.2753 1.50141 11.2539C1.69526 12.3793 3.34295 13.5046 4.4091 13.3089C5.37833 13.1621 5.91141 11.9389 5.6691 10.3731Z" fill="#FDB14A"/>
</g>
<defs>
<clipPath id="clip0">
<rect width="126" height="16" fill="white"/>
</clipPath>
</defs>
</svg>
