<svg width="16" height="13" viewBox="0 0 16 13" fill="none" xmlns="http://www.w3.org/2000/svg">
<path d="M7.40156 1.4C7.40156 1.1 7.10156 0.8 6.80156 0.8C6.70156 0.9 6.60156 0.9 6.50156 1L3.50156 4H1.10156C0.801562 4 0.601562 4.3 0.601562 4.6V8C0.601562 8.3 0.901563 8.6 1.20156 8.6H3.50156L6.50156 11.6C6.60156 11.7 6.70156 11.8 6.90156 11.8C7.20156 11.8 7.50156 11.5 7.50156 11.2V1.4H7.40156ZM10.9016 6.3C10.9016 5.4 10.4016 4.5 9.50156 4.2C9.40156 4.2 9.30156 4.2 9.30156 4.2C9.00156 4.2 8.70156 4.4 8.70156 4.8C8.70156 5.5 9.70156 5.3 9.70156 6.4C9.70156 7.5 8.70156 7.3 8.70156 8C8.70156 8.3 9.00156 8.6 9.30156 8.6C9.40156 8.6 9.50156 8.6 9.50156 8.6C10.3016 8 10.9016 7.2 10.9016 6.3ZM13.1016 6.3C13.1016 4.5 12.0016 2.8 10.3016 2.1C10.2016 2.1 10.1016 2.1 10.1016 2.1C9.80156 2 9.60156 2.3 9.60156 2.6C9.60156 2.8 9.70156 3 9.90156 3.1C10.1016 3.2 10.4016 3.3 10.6016 3.5C11.5016 4.2 12.0016 5.2 12.0016 6.3C12.0016 7.4 11.5016 8.4 10.6016 9.1C10.4016 9.3 10.2016 9.4 9.90156 9.5C9.70156 9.6 9.60156 9.8 9.60156 10C9.60156 10.3 9.90156 10.6 10.2016 10.6C10.3016 10.6 10.4016 10.6 10.4016 10.6C12.1016 9.8 13.1016 8.1 13.1016 6.3ZM15.4016 6.3C15.4016 3.6 13.8016 1.1 11.2016 0C11.1016 0 11.0016 0 11.0016 0C10.7016 0 10.4016 0.3 10.4016 0.6C10.4016 0.9 10.5016 1 10.7016 1.1C10.8016 1.2 11.0016 1.2 11.1016 1.3C11.3016 1.4 11.6016 1.6 11.8016 1.8C13.3016 2.9 14.1016 4.6 14.1016 6.4C14.1016 8.2 13.2016 9.9 11.8016 11C11.6016 11.2 11.3016 11.3 11.1016 11.5C11.0016 11.6 10.8016 11.6 10.7016 11.7C10.5016 11.8 10.4016 12 10.4016 12.2C10.4016 12.5 10.7016 12.8 11.0016 12.8C11.1016 12.8 11.2016 12.8 11.2016 12.8C13.8016 11.5 15.4016 9 15.4016 6.3Z" fill="#FDB14A"/>
</svg>
