<svg width="24" height="24" viewBox="0 0 24 24" fill="none" xmlns="http://www.w3.org/2000/svg">
<g clip-path="url(#clip0)">
<path d="M3.99078 3.36278C6.10493 2.53971 8.2884 3.29121 9.29348 3.89956C11.7542 5.36677 11.6502 8.0149 10.4372 9.37476C12.0315 9.19583 13.8684 10.2694 14.5615 10.9135C16.5 12.7149 17.8541 16.3529 16.3291 19.8241C14.5269 23.9395 9.95199 25.013 6.72878 23.0448C5.89698 22.5438 4.57997 21.2198 3.92147 20.6114C2.84706 19.6094 1.91129 18.9295 0.247695 19.0011C-0.489942 19.0328 -0.966493 19.4193 -1 19.4193V14.4921C-1 14.4921 0.15815 13.9985 1.39142 14.6352C2.77774 15.3509 3.88681 16.7108 4.89189 17.7486C6.27822 19.18 7.8725 20.3609 9.67473 20.4325C11.1304 20.5041 12.482 20.0031 13.3485 18.9653C14.8388 17.176 14.8735 13.347 12.5514 11.5577C11.477 10.7346 9.84802 10.6273 8.77361 11.665C8.11511 12.3092 7.97647 13.168 7.97647 13.168H6.76344C6.69412 11.665 6.83275 10.8777 6.76344 9.37476C7.24865 9.37476 8.18442 9.05268 8.7043 8.33697C9.1202 7.80019 9.53609 6.2972 8.35771 5.2952C7.49126 4.5437 5.75835 4.57949 4.99587 4.86577C3.50557 5.47413 2.84706 6.61927 2.60445 8.15805L2.50048 8.87376H1.53005C1.49539 7.54969 1.49539 6.18984 1.53005 4.86577C1.56471 4.97313 2.32719 4.04271 3.99078 3.36278Z" fill="#FDB14A"/>
<path d="M16.0313 3H19C19 3 18.4375 7 14.1563 7C10.5937 7 10 3.59504 10 3.59504L10.5 3C10.5 3 10.8125 5.41322 13.5313 5.41322C13.5313 5.41322 15.7188 5.41322 16.0313 3Z" fill="#FDB14A"/>
<path d="M13.9443 2.75946C14.7075 2.75946 15.3261 2.14173 15.3261 1.37973C15.3261 0.617725 14.7075 0 13.9443 0C13.1812 0 12.5625 0.617725 12.5625 1.37973C12.5625 2.14173 13.1812 2.75946 13.9443 2.75946Z" fill="#FDB14A"/>
<path d="M21.2732 4.5L24.0016 6.30741C24.0016 6.30741 23.7643 9.83333 20.265 9.41852C18.6636 9.21111 17.3884 7.72963 16.3208 8.41111C14.66 9.44815 16.0539 11.8481 17.8035 12.0852L17.3884 12.9444C17.3884 12.9444 14.9682 12.5 14.4704 10C14.4704 10 14.0034 6.75 16.5877 6.6037C17.5 6.6037 18.1001 6.92963 18.8415 7.10741C19.8794 7.28519 20.8581 6.3963 21.2732 4.5Z" fill="#FDB14A"/>
</g>
<defs>
<clipPath id="clip0">
<rect width="24" height="24" fill="white"/>
</clipPath>
</defs>
</svg>
