<svg width="12" height="16" viewBox="0 0 12 16" fill="none" xmlns="http://www.w3.org/2000/svg">
<path d="M11.0984 6.59995C11.0984 6.29995 10.7984 5.99995 10.4984 5.99995C10.1984 5.99995 9.99844 6.29995 9.99844 6.59995V7.69995C9.99844 9.89995 8.19844 11.7 5.99844 11.7C3.79844 11.7 1.99844 9.89995 1.99844 7.69995V6.59995C1.99844 6.29995 1.69844 5.99995 1.39844 5.99995C1.09844 5.99995 0.898438 6.29995 0.898438 6.59995V7.69995C0.898438 10.3 2.89844 12.5 5.49844 12.8V14H3.09844C2.79844 14 2.49844 14.3 2.49844 14.6C2.49844 14.9 2.79844 15.2 3.09844 15.2H8.79844C9.09844 15.2 9.39844 14.9 9.39844 14.6C9.39844 14.3 9.19844 14 8.89844 14H6.59844V12.8C9.19844 12.5 11.1984 10.3 11.1984 7.69995V6.59995H11.0984ZM8.89844 3.09995C8.89844 1.49995 7.59844 0.199951 5.99844 0.199951C4.39844 0.199951 3.09844 1.59995 3.09844 3.09995V7.69995C3.09844 9.29995 4.39844 10.6 5.99844 10.6C7.59844 10.6 8.89844 9.29995 8.89844 7.69995V3.09995Z" fill="#FDB14A"/>
</svg>
